<svg xmlns="http://www.w3.org/2000/svg" width="32" height="22" viewBox="0 0 32 22"><g fill="none" fill-rule="evenodd"><path fill="#FCE000" d="M4 0h19.3a4 4 0 0 1 3.457 1.988l4.073 7a4 4 0 0 1 0 4.024l-4.073 7A4 4 0 0 1 23.3 22H4a4 4 0 0 1-4-4V4a4 4 0 0 1 4-4z"/><g stroke="#000"><path stroke-linejoin="round" d="M12.857 10.143c0 .76-1.143 1.455-1.143 2.547 0 .62.499.81 1.143.81H14c1.126 0 6.08-4.542 5.142-6.99"/><path stroke-linecap="round" stroke-linejoin="round" d="M20.189 14.41a1.714 1.714 0 1 1-3.189.875c0-.182.132-.617.333-.798"/><path d="M17.015 5.005c2.774.035 4.825 7.489 4.825 9.081 0 .296-.188.574-.563.835-.672-.614-.873-.509-1.162-.509m-3.1.694c-.282.462-2.825.393-3.252.394m-1.077-4.895l-4.235-.118a.736.736 0 0 1-.737-.736v-.194c0-.425.39-1.106.814-1.08l3.969.551c.388.025.477.38.477.77 0 .407.119.807-.288.807z"/><path stroke-linecap="round" d="M7.525 13.729c-.091.05-.212.144-.36.282-.16.162-.248.254-.263.276a1.68 1.68 0 0 0-.33.999 1.714 1.714 0 1 0 3.428 0"/><path d="M8.286 10.143C8.286 11.286 6 11.79 6 13.798c0 0 .428.292.946.52m3.066.977c.538.125 1.067.205 1.542.205h3.205M17.043 5H15"/></g></g></svg>
