<svg width="185" height="185" xmlns="http://www.w3.org/2000/svg"><g fill="none" fill-rule="evenodd"><path d="M-11.1 41.875l18.845-9.192 9.191 18.845-18.845 9.192z"/><path d="M-2.528 42.496c-1.81.884-2.562 3.102-1.67 4.931l.068.139-.211 1.132c.266.052.518.05.769.01l.667 1.37a1.851 1.851 0 0 0 .051 1.497c.238.487.666.82 1.149.962l.752 1.541a1.236 1.236 0 0 0 1.637.574l9.874-4.816c.6-.293.852-1.037.557-1.644l-.752-1.541a1.851 1.851 0 0 0-.052-1.497 1.851 1.851 0 0 0-1.148-.963l-.667-1.368c.186-.174.342-.37.465-.613l-1.031-.547-.06-.122c-.892-1.83-3.102-2.603-4.913-1.72l-5.485 2.675zm.512 1.123l.554-.27a.617.617 0 0 0 1.109-.541l3.88-1.892a2.456 2.456 0 0 1 3.295 1.13l.135.276c-.162.03-.33.02-.5-.013l-.395-.064-.236.35-.298.446c-.275.42-.747.65-1.247.608l-.534-.04-.336-.028-.218.256-.594.803a1.365 1.365 0 0 1-1.091.532L.49 45.155l-.336.014-.184.282-.297.445c-.275.42-.747.65-1.248.608l-.533-.039-.422-.03-.193.351a1.35 1.35 0 0 1-.298.402l-.134-.276a2.456 2.456 0 0 1 1.138-3.293zm.27.554a.618.618 0 0 0 .541 1.109.618.618 0 0 0-.54-1.109zm2.217-1.081a.618.618 0 0 0 .541 1.108.618.618 0 0 0-.54-1.108zm-2.441 4.621l.293.029a2.583 2.583 0 0 0 2.39-1.166l.105-.18.672.015a2.587 2.587 0 0 0 2.079-1.013l.401-.54.207.029a2.583 2.583 0 0 0 2.39-1.166l.158-.249a3.02 3.02 0 0 0 .742-.104l.44.9-9.977 4.866-.44-.9c.199-.154.38-.32.54-.52zm.44 2.53l9.977-4.866a.606.606 0 0 1 .824.284.606.606 0 0 1-.283.824L-.99 51.351a.606.606 0 0 1-.825-.284.606.606 0 0 1 .284-.824zm1.082 2.217l9.976-4.866.54 1.108-9.976 4.866-.54-1.108z" fill="#E5E5E5" fill-rule="nonzero"/><path d="M33.688 3.7l19.702 7.171-7.17 19.703-19.703-7.171z"/><path d="M49.625 13.478l-8.127 1.147c-.137-.152-.27-.303-.423-.44-.628-.57-1.51-1.08-2.552-1.46-1.042-.38-2.046-.556-2.894-.522-.423.017-.804.083-1.149.235-.344.153-.674.421-.814.807l-.952 2.614-1.469.201c-.213.266-.3.504-.26.713.041.21.19.375.445.498l.805-.095-.446 1.226-1.279-.036a.671.671 0 0 0-.315.58.821.821 0 0 0 .283.654l1.068.041c.038.218.121.463.275.733.406.717 1.291 1.491 3.131 2.161 1.84.67 3.015.646 3.787.357.386-.143.67-.343.84-.531.17-.189.25-.4.25-.4l.734-2.02 7.862.268c.284-.128.431-.337.44-.626.009-.29-.13-.486-.414-.59l-7.448-.26.906-2.488c.053-.147.062-.3.059-.448l7.86-1.101c.316-.17.449-.41.397-.718-.051-.308-.251-.475-.6-.5zm-11.552.35c.895.325 1.638.775 2.09 1.19.226.209.37.412.435.549.066.136.06.173.056.184-.004.012-.023.043-.161.106-.138.062-.38.126-.687.14-.612.027-1.471-.106-2.365-.431-.894-.326-1.638-.776-2.09-1.191a1.965 1.965 0 0 1-.435-.549c-.066-.136-.06-.173-.056-.184.004-.011.023-.043.161-.105.138-.063.38-.126.687-.14.612-.028 1.471.105 2.365.43zm-.21.579c-.641-.233-1.206-.293-1.265-.132-.058.16.413.478 1.054.711.64.234 1.205.293 1.264.132.058-.16-.413-.478-1.054-.711zm-3.53.684c.058.064.11.13.176.192.612.579 1.476 1.09 2.502 1.464 1.025.373 2.017.537 2.858.487.089-.005.172-.023.258-.034l-.54 1.485-6.52-.117 1.265-3.477zm4.74 5.006l-.53 1.453-.005.016c0-.002.004-.019-.025.01a.693.693 0 0 1-.324.196c-.387.12-1.253.173-2.941-.442-1.689-.614-2.318-1.211-2.537-1.552-.024-.036-.036-.061-.051-.092l6.413.411z" fill="#E5E5E5" fill-rule="nonzero"/><path d="M11.1 73.383h20.967V94.35H11.1z"/><g fill="#E5E5E5" fill-rule="nonzero"><path d="M29.748 85.335l.146.53-14.738 5.99a.678.678 0 0 1-.888-.874l5.77-14.846.532.14a12.973 12.973 0 0 1 9.178 9.06zm-8.964-7.715l-4.9 12.608 12.517-5.088a11.747 11.747 0 0 0-7.617-7.52z"/><path d="M26.78 86.34l-1.14.47a11.758 11.758 0 0 0-6.532-6.443l.454-1.147a12.991 12.991 0 0 1 7.218 7.12zm-2.113.918h-1.234a.925.925 0 1 0-1.453.76l-.706 1.01a2.158 2.158 0 1 1 3.393-1.77zm-7.115-3.423l1.005-.715a.308.308 0 1 0 .252-.486V81.4a1.542 1.542 0 1 1-1.257 2.435z"/></g><path d="M60.927 70.3l20.252 5.427-5.427 20.252L55.5 90.553z"/><path d="M68.133 75.423c-2.55-.683-4.288-.463-5.385-.006-.548.23-.924.505-1.177.742-.253.236-.405.47-.405.47l-.039.07-2.205 8.23a2 2 0 0 0 1.414 2.45l12.815 3.434a2 2 0 0 0 2.45-1.414l1.018-3.802s.159-.985-.424-2.068c-.555-1.035-1.798-2.168-4.214-2.885a1.244 1.244 0 0 0-.606-.756l-1.49-.803c-.008-.072-.014-.126-.025-.207a10.46 10.46 0 0 0-.232-1.219c-.116-.442-.254-.903-.469-1.303-.214-.399-.5-.792-1.026-.933zm-.32 1.191c-.025-.007.114.068.252.327s.267.633.366 1.016c.055.214.093.426.13.633.07.358.232.85.291 1.057l.995.594.835.468a.666.666 0 0 1 .34.561l.002.05a.44.44 0 0 0 .326.412c2.418.647 3.365 1.634 3.77 2.386.404.752.282 1.253.282 1.253l-1.112 4.151a.308.308 0 1 1-.596-.16l.08-.297a.618.618 0 0 0-1.19-.32.617.617 0 1 1-1.191-.32l.079-.297a.928.928 0 0 0-.655-1.132.928.928 0 0 0-1.132.654l-.08.297a.617.617 0 1 1-1.191-.32l.16-.594a1.236 1.236 0 0 0-.873-1.511 1.236 1.236 0 0 0-1.51.872l-.16.596a.617.617 0 1 1-1.191-.32l.08-.297a.928.928 0 0 0-.655-1.133.928.928 0 0 0-1.133.654l-.08.298a.617.617 0 1 1-1.191-.32.618.618 0 0 0-1.191-.319l-.08.298a.308.308 0 1 1-.596-.16l2.265-8.45c.009-.015.013-.042.143-.161.156-.146.432-.346.836-.515.811-.338 2.223-.581 4.575.05zm-1.632 1.478a.925.925 0 1 0-.479 1.787.925.925 0 1 0 .479-1.787zm-2.84-.123a.617.617 0 1 0-.32 1.191.617.617 0 0 0 .32-1.19zm5.318 3.98a1.236 1.236 0 0 0-1.51.871l-.061.226a1 1 0 0 0 .707 1.224l.45.121a1 1 0 0 0 1.225-.707l.06-.225a1.236 1.236 0 0 0-.871-1.51zm-3.436-.283a.925.925 0 1 0-.479 1.787.925.925 0 1 0 .479-1.787zm6.552 1.756a.925.925 0 1 0-.479 1.787.925.925 0 1 0 .48-1.787zm-9.392-1.879a.617.617 0 1 0-.32 1.191.617.617 0 0 0 .32-1.19zm11.913 3.192a.617.617 0 0 0-.32 1.191.617.617 0 1 0 .32-1.19z" fill="#E5E5E5" fill-rule="nonzero"/><path d="M62.9 31.45h20.967v20.967H62.9z"/><g fill="#E5E5E5" fill-rule="nonzero"><path d="M64.133 44.761h1.234c0 1.375 7.704 2.658 11.827 1.876 3.222-.61 4.206-1.77 4.206-4.087h1.233c0 2.915-1.411 4.579-5.21 5.299-4.863.922-13.29-.48-13.29-3.088z"/><path d="M64.133 41.823c0-1.54 1.43-3.426 3.753-3.426.622 0 1.044.096 1.682.33l.148.055c.62.228.979.31 1.592.31.31-.001.13.139 2.042-1.513 1.403-1.211 2.542-1.816 3.958-1.812 3.019.007 5.325 1.759 5.325 3.94 0 2.79-1.426 4.392-5.217 5.072-4.873.875-13.283-.45-13.283-2.956zm13.065 1.742c3.219-.577 4.202-1.681 4.202-3.857 0-1.416-1.693-2.702-4.095-2.708-1.045-.003-1.95.478-3.149 1.512-.104.09-.21.184-.345.304l-.337.301a12.6 12.6 0 0 1-.663.559c-.55.425-1.009.648-1.503.648-.781 0-1.273-.11-2.018-.385l-.147-.054c-.513-.188-.805-.255-1.257-.255-.89 0-1.537.347-1.993.949-.327.432-.526.992-.526 1.244 0 .171.323.469 1.034.773.783.336 1.912.624 3.245.834 2.624.414 5.684.47 7.552.135z"/><path d="M67.294 39.15l1.078-.6 3.084 5.55-1.078.6zm3.688.592l1.103-.551 2.467 4.933-1.104.552zm2.477-1.83l1.082-.59 3.7 6.783-1.082.59zm2.466-1.233l1.083-.591 3.7 6.783-1.083.591zM64.133 41.47h1.234v3.392h-1.234zM81.4 39.62h1.233v3.392H81.4z"/></g><path d="M104.833 83.55l20.582-4 4 20.582-20.581 4z"/><path d="M123.69 83.654l-7.611 2.808.222 1.142 7.81-2.724c.3-.225.396-.494.29-.807-.105-.313-.342-.452-.71-.419zm-9.01 2.383a.724.724 0 0 0-.071.033.615.615 0 0 0-.356.694l.702 3.61a.616.616 0 1 0 1.21-.236l-.702-3.61a.618.618 0 0 0-.782-.492zm-1.872.361a.644.644 0 0 0-.364.752l.688 3.54a.66.66 0 0 0 .41.502.595.595 0 0 0 .609-.118.66.66 0 0 0 .191-.618l-.688-3.541a.673.673 0 0 0-.26-.43.6.6 0 0 0-.473-.109l-.056.011-.057.011zm-1.575.937a.715.715 0 0 0-.072.034.616.616 0 0 0-.353.696l.103.528-1.24.457.335.915 1.1-.37.076.396-1.204.234.19.982 1.205-.234.492 2.53a1.227 1.227 0 0 0-.963 1.473l.111.574c.411 2.115 2.325 3.483 4.41 3.396a.75.75 0 0 0 .88.593l.067-.013 6.076-1.18.099-.02a.866.866 0 0 0 .685-1.015c1.62-.866 2.605-2.672 2.236-4.57l-.114-.585v-.003a1.248 1.248 0 0 0-1.464-.987L113.07 93.27l-1.058-5.439a.613.613 0 0 0-.78-.495zm13.285-.072l-7.97 1.608.212 1.097 7.993-1.494c.32-.16.445-.393.375-.702-.07-.308-.273-.478-.61-.51zm-12.489 7.453l12.107-2.353.118.605a3.08 3.08 0 0 1-1.935 3.478c-.172.101-.277.19-.317.267-.046.088-.069.247-.069.475l-5.448 1.06c-.119-.216-.218-.35-.298-.405-.08-.054-.222-.082-.425-.083a3.074 3.074 0 0 1-3.615-2.439l-.118-.605z" fill="#E5E5E5" fill-rule="nonzero"/><path d="M33.917 114.024l20.648-3.64 3.641 20.648-20.648 3.64z"/><path d="M44.169 115.347a1.86 1.86 0 0 0-1.5 2.143l-1.215.215a3.087 3.087 0 0 0-2.45 2.31l-1.48.261.214 1.215 1.215-.214.29 1.65-1.743-.122-.096 1.23 2.06.145.774 4.384a1.86 1.86 0 0 0 2.143 1.5l9.716-1.713a1.86 1.86 0 0 0 1.501-2.143l-.773-4.384 1.887-.841-.511-1.123-1.597.712-.29-1.651 1.214-.214-.214-1.215-1.48.261a3.087 3.087 0 0 0-3.093-1.333l-1.214.214a1.86 1.86 0 0 0-2.144-1.5l-1.214.213zm.214 1.215l1.215-.214a.606.606 0 0 1 .714.5l-2.43.428a.606.606 0 0 1 .501-.714zm-2.715 2.357l7.287-1.285a1.827 1.827 0 0 1 1.455.37l-9.983 1.76c.267-.429.7-.75 1.24-.845zm-1.5 2.143l10.93-1.927 1.285 7.287a.606.606 0 0 1-.5.715l-9.716 1.713a.606.606 0 0 1-.715-.5l-1.285-7.288z" fill="#E5E5E5" fill-rule="nonzero"/><path d="M130.516 112.85l20.43 4.717-4.716 20.43-20.43-4.717z"/><path d="M138.836 117.935l-.139.601c-.128.554-.289.62-.625.825-.17.101-.388.212-.61.413-.097.086-.144.258-.227.382-.641-.08-1.265-.057-1.81.216-.525.261-.891.768-1.144 1.357-1.534-.102-2.848.858-3.188 2.33-.231 1.002.09 2.008.845 2.766l.078 3.775c.01.564.406 1.044.956 1.17l7.473 1.726c.55.127 1.115-.13 1.372-.633l1.81-3.557c.616-.3 1.678-1.012 2.013-2.463.511-2.215-.992-4.11-2.877-4.758a3.445 3.445 0 0 0-.965-2.418c-.714-.73-1.602-1.23-2.197-1.535l-.052-.032-.713-.165zm.693 1.624c.466.27.966.549 1.378.97.554.568.861 1.154.702 1.844l-.14.6.602.14c1.48.341 2.75 1.794 2.367 3.453-.169.73-.57 1.151-.938 1.405-.127-.242-.291-.492-.52-.575-.56-.203-1.044-.068-1.687.026-1.282.189-3.102.49-5.371-.034-1.51-.348-2.527-.855-3.083-1.384-.555-.528-.696-1.008-.544-1.668.221-.958.859-1.483 1.811-1.421.079.537.278 1.033.647 1.395.53.518 1.234.888 1.924 1.176a14.93 14.93 0 0 0 2.796.824l.203-1.22s-1.32-.237-2.538-.743c-.609-.255-1.171-.57-1.512-.903-.341-.334-.457-.59-.373-.956.128-.552.381-.827.725-1 .344-.173.83-.224 1.425-.086l.6.138.14-.6c.032-.144.057-.178.135-.246a3.42 3.42 0 0 1 .42-.279c.256-.153.569-.46.831-.856zm2.902 9.016c-.002.051.006.06-.024.192l-.096.413-1.589 3.114-7.473-1.725-.056-2.841c.355.185.754.344 1.192.492l-.126 1.316 1.202.278.108-1.241.075.017c.453.105.892.174 1.313.224l-.295 1.277 1.202.277.338-1.464c.55.013 1.066-.004 1.533-.042l-.67 1.784 1.202.277.853-2.235c.11-.017.245-.025.345-.04.558-.08.88-.073.966-.073z" fill="#E5E5E5" fill-rule="nonzero"/><path d="M78.317 130.117h20.967v20.967H78.317z"/><path d="M93.668 134.187a2.771 2.771 0 0 0-3.236-.592c-1.378-.774-3.158-.56-4.371.572a3.67 3.67 0 0 0-1.031 1.702 3.085 3.085 0 0 0-2.547.791 3.085 3.085 0 0 0-.498 3.91 3.085 3.085 0 0 0 .224 3.934 3.086 3.086 0 0 0 4.358.152 2.95 2.95 0 0 0 .337-.38c1.616.18 3.987 1.4 5.252 2.757l.42.451 3.609-3.365-.42-.45c-1.292-1.385-2.06-3.353-2.188-5.56 1.044-1.032 1.097-2.844.091-3.922zm.79 9.857l-1.838 1.713c-1.069-.976-2.529-1.821-3.911-2.304.105-.075.211-.148.308-.238.418-.39.687-.878.807-1.395l2.003 2.147.902-.84-2.013-2.159a2.74 2.74 0 0 0 1.458-.697c.146-.137.27-.287.38-.447.323 1.603.97 3.052 1.903 4.22zm-1.77-6.782c-.086.08-.207.137-.435.201l-.485.14.042.504c.041.482-.134.941-.477 1.262-.55.512-1.415.538-2.014.066l-.414-.332-.828.772.303.439a1.524 1.524 0 0 1-1.521 2.38l-.495-.085-.185.47a1.843 1.843 0 0 1-.453.675 1.854 1.854 0 0 1-2.615-.091 1.854 1.854 0 0 1 .091-2.615l.451-.42-.42-.451a1.854 1.854 0 0 1 .091-2.615 1.852 1.852 0 0 1 1.944-.36c.105.06.556.328 1.091.902l.902-.84a6.4 6.4 0 0 0-1.066-.933c.107-.485.346-.925.707-1.262.89-.83 2.214-.935 3.153-.253l.36.261.357-.255a1.55 1.55 0 0 1 1.994.206c.564.605.526 1.67-.078 2.234zM92.5 168.967l-.51 1.007-1.157.163.838.798-.195 1.115.824-.424-2.869 6.217-.754-.378-1.11 1.113v5.189h-1.85v8.016h13.566v-8.017h-1.85v-5.188l-1.11-1.113-.4.2-.354.178-2.87-6.217.825.424-.195-1.115.838-.798-1.156-.163-.511-1.007zm0 5.171l1.665 3.604-.432-.214-1.233.616-1.233-.616-.432.214 1.665-3.604zm-1.233 4.768l1.233.616 1.233-.616 1.234.616 1.11-.554.123.12v4.679h-7.4v-4.678l.123-.12 1.11.553 1.234-.616zM86.95 185h11.1v5.55h-2.467v-.617a3.092 3.092 0 0 0-3.083-3.083 3.092 3.092 0 0 0-3.083 3.083v.617H86.95V185zm-1.233 1.614v3.936-3.936zm13.566 3.936v-3.936 3.936zm-6.783-2.467c1.029 0 1.85.822 1.85 1.85v.617h-3.7v-.617c0-1.028.821-1.85 1.85-1.85z" fill="#E5E5E5" fill-rule="nonzero"/><g fill="#E5E5E5"><path d="M83.25 1.85L84.79.617l2.16 1.233v4.934h-3.7V1.85zm1.233 3.7h1.234V2.566l-.81-.462-.424.339V5.55zm13.567-3.7L99.59.617l2.16 1.233v4.934h-3.7V1.85zm1.233 3.7h1.234V2.566l-.81-.462-.424.339V5.55z" fill-rule="nonzero"/><path d="M86.95 5.55h11.1v1.233h-11.1zM86.333 0h1.233v5.55h-1.233zm11.1 0h1.233v5.55h-1.233z"/><path d="M95.583 5.55H94.35c0-1.716-.499-2.467-1.85-2.467s-1.85.75-1.85 2.467h-1.233c0-2.317.92-3.7 3.083-3.7 2.164 0 3.083 1.383 3.083 3.7z" fill-rule="nonzero"/></g><path d="M154.467 3.083l20.582 4.001-4 20.582-20.582-4z"/><path d="M162.354 7.757c-1.405-.273-2.34-.41-3.049-.376-.354.017-.667.061-.95.247-.284.185-.474.519-.533.819-.103.532.076.999.283 1.272.037.05.045.036.083.075l-.341 1.76a3.087 3.087 0 0 0-2.353 2.408l-1.177 6.054 14.528 2.824.706-3.632.235-1.211.236-1.21a3.087 3.087 0 0 0-1.28-3.115l.232-1.192c.33-.167.715-.443.837-1.074.058-.296.003-.672-.19-.94-.193-.269-.47-.433-.79-.586-.604-.286-1.472-.517-2.755-.77-.19-.244-.458-.397-.759-.541-.64-.304-1.554-.538-2.963-.812zm-.236 1.211c1.374.267 2.244.512 2.669.715.197.095.281.155.3.176-.059.298-.294.296-.294.296l-.408.078-.434 2.232-4.842-.941.44-2.27-.408-.217s-.026.005-.069-.053c-.043-.057-.077-.108-.04-.302.013-.063-.004-.015.005-.019.008-.003.091-.043.324-.054.466-.023 1.379.091 2.757.359zm4.079 1.44c1.041.223 1.742.415 2.104.586.198.095.281.156.3.176-.058.298-.294.297-.294.297l-.407.078-.317 1.626-2.421-.47.298-1.533c.267-.134.566-.348.737-.76zm-4.92-.347a.618.618 0 0 0-.235 1.21.618.618 0 0 0 .236-1.21zm1.396.9a.307.307 0 0 0-.361.243.307.307 0 0 0 .244.362.307.307 0 0 0 .361-.244.307.307 0 0 0-.244-.361zm3.632.706a.307.307 0 0 0-.361.243.307.307 0 0 0 .244.362.307.307 0 0 0 .361-.244.307.307 0 0 0-.244-.361zm-7.432 1.068l8.475 1.647a1.85 1.85 0 0 1 1.463 2.169l-.941 4.843-12.107-2.354.941-4.842a1.85 1.85 0 0 1 2.17-1.463z" fill="#E5E5E5" fill-rule="nonzero"/><g fill="#E5E5E5" fill-rule="nonzero"><path d="M117.975 30.875a.617.617 0 0 1 .757-.974c2.167 1.686 2.723 3.368 1.336 4.777-1.36 1.383-3.002 5.6-2.443 6.685.473.92 1.14.99 2.714.597 1-.249 1.822-1.932 1.442-4.268a.617.617 0 1 1 1.217-.198c.474 2.913-.662 5.24-2.36 5.663-2.084.52-3.274.394-4.11-1.23-.865-1.68.97-6.395 2.661-8.114.743-.755.449-1.644-1.214-2.938z"/><path d="M120.67 43.203a.617.617 0 1 1-.257-1.206c3.126-.67 5.035-1.145 5.654-1.403.679-.283 1.063-2.633.34-3.576-.612-.797-1.245-1.317-1.896-1.572a.617.617 0 0 1 .45-1.148c.879.345 1.685 1.006 2.425 1.97 1.182 1.541.643 4.844-.844 5.464-.72.3-2.653.782-5.871 1.47z"/><path d="M124.7 32.45a.067.067 0 0 0-.009-.004l.009.004zm.382-.021c2.18-.226 3.544.082 5.637 2.001 2.671 2.449 2.73 4.71.031 6.27l-.075.043-.084.021-4.299 1.072-.298-1.197 4.212-1.05c1.823-1.087 1.763-2.34-.32-4.25-1.796-1.645-2.816-1.876-4.677-1.683-.839.087-1.272-.003-1.547-.627a8.85 8.85 0 0 0-.318-.63c-.738-1.401-.934-2.308-.428-3.573l1.145.459c-.338.843-.21 1.429.374 2.54.202.382.255.486.32.626a2.93 2.93 0 0 0 .327-.022z"/><path d="M119.492 27.565a.617.617 0 1 1 .283 1.2c-.332.079-.682.42-.843.82-.125.31-.094.456-.002.494 1.06.436 1.83.443 2.68-.105.708-.456 1.162-.9 1.373-1.316a.617.617 0 0 1 1.1.558c-.324.638-.928 1.23-1.804 1.794-1.236.797-2.417.785-3.818.21-.834-.343-1.021-1.229-.674-2.094.301-.75.952-1.384 1.705-1.561zm4.757 4.004a.617.617 0 0 1 .565 1.096c-2.539 1.308-4.596 1.668-6.175 1.012a.617.617 0 1 1 .473-1.14c1.176.49 2.89.19 5.137-.968z"/></g><path d="M16.693 152.933l20.508 4.36-4.359 20.508-20.509-4.359z"/><path d="M27.511 160.986a1.855 1.855 0 0 0-.55-.196 2.154 2.154 0 0 0-1.341-.916 2.182 2.182 0 0 0-1.927.537 1.809 1.809 0 0 0-.916-.51 1.86 1.86 0 0 0-1.972.841c-1.011-.281-2.069.373-2.288 1.405l-1.207-.256-.128.603c-.015.073-1.447 7.258 6.303 8.905 7.75 1.647 9.365-5.498 9.38-5.571l.128-.604-1.206-.256a1.855 1.855 0 0 0-.913-2.007 1.926 1.926 0 0 0-.1-.454l-.783-.955a1.868 1.868 0 0 0-.579-.241 1.813 1.813 0 0 0-.548-.018l-1.353-.307zm-2.148.095c.29.061.537.257.655.533l.173.391.416-.01a.495.495 0 0 1 .136.01c.332.07.545.399.475.73l1.206.257a.618.618 0 0 1 1.207.257l-.129.603.604.128c.332.07.545.4.475.732l-10.858-2.308c.07-.333.4-.546.732-.475a.519.519 0 0 1 .262.154l.314.284.737-.317.024-.389c0-.027-.009-.05-.003-.079.07-.332.4-.546.732-.475a.63.63 0 0 1 .46.433l.116.379.422.05.607.11.199-.47a.92.92 0 0 1 1.038-.528zm-1.72 2.156a.308.308 0 0 0 .367-.237.307.307 0 0 0-.238-.366.307.307 0 0 0-.366.237c-.035.168.07.33.238.366zm4.223.898c.167.035.33-.07.366-.238a.307.307 0 0 0-.238-.366.307.307 0 0 0-.365.238c-.036.167.07.33.237.366zm-2.76-1.848a.307.307 0 0 0-.365.238c-.036.167.07.33.237.365a.307.307 0 1 0 .128-.603zm-6.79 1.079l13.177 2.8c-.525 1.495-2.396 5.165-7.752 4.027-5.355-1.139-5.553-5.249-5.424-6.827z" fill="#E5E5E5" fill-rule="nonzero"/><path d="M172.05 117.826l20.509-4.36 4.36 20.51-20.51 4.359z"/><path d="M186.644 117.246l-.075.39-.685 3.08a11.217 11.217 0 0 0-3.638.774 3.4 3.4 0 0 0-2.965-.788 3.4 3.4 0 0 0-2.612 4.023 3.39 3.39 0 0 0 2.56 2.588c.069.663.176 1.388.339 2.154.645 3.033 3.897 4.846 7.186 4.147 3.29-.7 5.522-3.679 4.878-6.711-.586-2.757-1.684-4.863-1.684-4.863l-.053.03c-.41-.735-1.423-1.191-2.763-1.323l.54-2.46 2.64-.56-.257-1.207-3.411.726zm-7.107 4.662a2.148 2.148 0 0 1 1.443.206c.38.2.69.503.899.892.091.176.175.362.218.565l1.207-.257a3.356 3.356 0 0 0-.286-.786 10.57 10.57 0 0 1 1.3-.375 10.42 10.42 0 0 1 1.302-.178l-.657 2.937.538.122a9.33 9.33 0 0 1-.542.135c-2.578.548-4.412.005-4.543-.61-.066-.309.268-.769.941-1.225a1.525 1.525 0 0 0-.977-.797c-.704.556-1.133 1.182-1.191 1.81l-.06-.007s-.049.655-.003 1.655a2.16 2.16 0 0 1-1.251-1.527 2.149 2.149 0 0 1 1.662-2.56zm7.337.037c1.168.082 1.906.437 1.987.819.107.504-.86 1.416-2.622 2.034l.635-2.853zm-6.477 4.194c1.107.538 2.853.654 4.818.237.877-.187 1.655-.45 2.338-.773.316 2.03.103 3.17.103 3.17l1.227.212s.24-1.556-.208-4.035c.336-.238.623-.487.845-.75.303.785.66 1.802.905 2.96.489 2.297-1.218 4.671-3.928 5.247-2.71.576-5.234-.899-5.723-3.196a19.533 19.533 0 0 1-.377-3.072z" fill="#E5E5E5" fill-rule="nonzero"/><path d="M-12.95 117.826l20.509-4.36 4.36 20.51-20.51 4.359z"/><path d="M1.644 117.246l-.075.39-.685 3.08a11.217 11.217 0 0 0-3.638.774 3.4 3.4 0 0 0-2.965-.788 3.4 3.4 0 0 0-2.612 4.023 3.39 3.39 0 0 0 2.56 2.588c.069.663.176 1.388.339 2.154.645 3.033 3.897 4.846 7.186 4.147 3.29-.7 5.522-3.679 4.878-6.711-.586-2.757-1.684-4.863-1.684-4.863l-.053.03c-.41-.735-1.423-1.191-2.763-1.323l.54-2.46 2.64-.56-.257-1.207-3.411.726zm-7.107 4.662a2.148 2.148 0 0 1 1.443.206c.38.2.69.503.899.892.091.176.175.362.218.565l1.207-.257a3.356 3.356 0 0 0-.286-.786 10.57 10.57 0 0 1 1.3-.375 10.42 10.42 0 0 1 1.302-.178l-.657 2.937.538.122a9.33 9.33 0 0 1-.542.135c-2.578.548-4.412.005-4.543-.61-.066-.309.268-.769.941-1.225a1.525 1.525 0 0 0-.977-.797c-.704.556-1.133 1.182-1.191 1.81l-.06-.007s-.049.655-.003 1.655a2.16 2.16 0 0 1-1.251-1.527 2.149 2.149 0 0 1 1.662-2.56zm7.337.037c1.168.082 1.906.437 1.987.819.107.504-.86 1.416-2.622 2.034l.635-2.853zm-6.477 4.194c1.107.538 2.853.654 4.818.237.877-.187 1.655-.45 2.338-.773.316 2.03.103 3.17.103 3.17l1.227.212s.24-1.556-.208-4.035c.336-.238.623-.487.845-.75.303.785.66 1.802.905 2.96.489 2.297-1.218 4.671-3.928 5.247-2.71.576-5.234-.899-5.723-3.196a19.533 19.533 0 0 1-.377-3.072z" fill="#E5E5E5" fill-rule="nonzero"/><g><path d="M145.533 60.433H166.5V81.4h-20.967z"/><path d="M161.61 63.517c-.614.002-1.147.342-1.46.814l.022-.031a50.648 50.648 0 0 1-1.448 1.804c-.021-.007-.038-.017-.067-.027h-.003a2.048 2.048 0 0 0-1.057-.045 1.986 1.986 0 0 0-.956.51l-.933.896a3.317 3.317 0 0 0-1.127-.221c-.566-.01-1.19.144-1.655.61-.462.462-.617 1.085-.61 1.654.005.397.09.78.225 1.127l-.899.933a2.034 2.034 0 0 0-.465 2.013v.003c.01.029.02.046.027.067a51.705 51.705 0 0 1-1.804 1.448l.03-.022c-.471.313-.81.846-.813 1.46-.003 1.026.905 1.804 1.934 1.807h.012c.906 0 1.838-.19 2.768-.504.373.395.891.504 1.305.504.316 0 .636-.082.925-.241.34-.19.812-.518 1.718-1.25.867.43 1.951.298 2.669-.422l1.558-1.556a2.314 2.314 0 0 0 .42-2.67c.732-.905 1.06-1.377 1.25-1.717.159-.289.24-.609.24-.925 0-.414-.108-.932-.503-1.305.313-.93.504-1.862.504-2.768v-.012c-.003-1.029-.78-1.934-1.805-1.934h-.002zm.002 1.233c.285 0 .571.272.571.703v.01c0 .655-.123 1.366-.344 2.096a33.07 33.07 0 0 0-1.402-.694c-.202-.096-.357-.164-.54-.246.458-.554.896-1.096 1.258-1.575l.012-.015.012-.016c.118-.179.267-.263.433-.263zm-3.533 2.467c.07.004.14.017.207.038-.056-.02.04.015.135.056.094.038.221.094.37.159.304.134.702.313 1.118.51.836.393 1.78.88 2.13 1.125.077.056.144.212.144.431a.644.644 0 0 1-.086.323c-.152.277-.424.663-1.002 1.385l-.273-.217c-.38-.298-.9-.7-1.467-1.132-.843-.638-1.77-1.325-2.522-1.823l.66-.64a.815.815 0 0 1 .586-.215zm-3.515 1.233c.335.005.71.118.954.255.65.366 1.973 1.325 3.09 2.173.562.426 1.077.826 1.456 1.12.187.15.342.27.448.354.053.044.096.077.122.1a1.07 1.07 0 0 1-.002 1.524l-1.554 1.556a1.073 1.073 0 0 1-1.532 0c.046.046-.045-.053-.135-.161a23.245 23.245 0 0 1-.351-.434 83.599 83.599 0 0 1-1.07-1.373c-.804-1.062-1.717-2.332-2.182-3.148a2.146 2.146 0 0 1-.258-.954c-.005-.333.082-.598.25-.764.167-.166.43-.253.764-.248zm-1.395 3.283c.528.814 1.212 1.75 1.838 2.575a80.52 80.52 0 0 0 1.087 1.397l.24.297c-.715.57-1.1.843-1.375.995a.644.644 0 0 1-.323.086c-.219 0-.375-.067-.43-.144-.246-.35-.733-1.294-1.126-2.13a50.449 50.449 0 0 1-.51-1.117l-.16-.371c-.04-.094-.074-.19-.055-.135a.806.806 0 0 1 .176-.793l.638-.66zm-1.45 3.064c.082.183.15.338.246.54.224.474.46.963.694 1.402-.73.221-1.438.344-2.096.344h-.01c-.43-.002-.703-.286-.703-.57 0-.167.084-.316.263-.434l.016-.012.015-.012c.48-.362 1.021-.8 1.575-1.258z" fill="#E5E5E5" fill-rule="nonzero"/></g><g fill="#E5E5E5" fill-rule="nonzero"><path d="M144.253 158.916l.627.667c.392.415 1.138 1.54 1.298 2.144-.6.785-.9 1.442-1.12 1.978-.594-.192-1.73-.47-3.221.102l-.576.22.22.576c.424 1.102 1.165 1.845 1.425 2.096a5.76 5.76 0 0 0 .344 2.51l.22.576.576-.221c1.48-.568 2.149-1.542 2.463-2.08.95.44 2.206.806 3.645.891.084.378.233.894.607 1.419l.273.39.45-.173c.71-.272 1.187-.86 1.562-1.363.306-.412.433-.667.501-.79 2.258-.96 3.246-2.756 3.56-4.278.325-1.572.04-2.905.04-2.905l-.037-.151-.109-.123s-2.707-3.115-6.35-1.918c-.557-.315-1.235-.494-2.098-.516-1.019-.027-2.22.15-3.437.618l-.863.331zm2.142.581c.758-.198 1.493-.312 2.116-.296.852.021 1.532.26 1.727.41l.265.208.324-.124c2.876-1.104 4.956 1.222 5.126 1.417.041.227.183 1.094-.052 2.23-.268 1.297-.97 2.704-2.998 3.483l-.216.082-.106.207s-.205.375-.52.798c-.165.22-.342.317-.533.493a6.047 6.047 0 0 0-.248-.648l-.068-.552-.53.018c-1.634.003-3.24-.557-4.133-1.035l-.576-.316-.266.598s-.56.832-1.459 1.468a10.992 10.992 0 0 1-.112-1.422l.029-.3-.223-.204s-.503-.565-.92-1.215a4.614 4.614 0 0 1 2.12.198l.597.266.216-.62c.291-.78 1.122-2.763 3.056-3.815l-.597-1.072c-.523.284-.943.628-1.335.987-.214-.472-.399-.878-.684-1.244zm6.755 1.948a.925.925 0 1 0 .664 1.728.925.925 0 0 0-.664-1.728z"/></g><g><path d="M173.9 41.875l18.845-9.192 9.191 18.845-18.845 9.192z"/><path d="M182.472 42.496c-1.81.884-2.562 3.102-1.67 4.931l.068.139-.211 1.132c.266.052.518.05.769.01l.667 1.37a1.851 1.851 0 0 0 .051 1.497c.238.487.666.82 1.149.962l.752 1.541a1.236 1.236 0 0 0 1.637.574l9.874-4.816c.6-.293.852-1.037.557-1.644l-.752-1.541a1.851 1.851 0 0 0-.052-1.497 1.851 1.851 0 0 0-1.148-.963l-.667-1.368c.186-.174.342-.37.465-.613l-1.031-.547-.06-.122c-.892-1.83-3.102-2.603-4.913-1.72l-5.485 2.675zm.512 1.123l.554-.27a.617.617 0 0 0 1.109-.541l3.88-1.892a2.456 2.456 0 0 1 3.295 1.13l.135.276c-.162.03-.33.02-.5-.013l-.395-.064-.236.35-.298.446c-.275.42-.747.65-1.247.608l-.534-.04-.336-.028-.218.256-.594.803a1.365 1.365 0 0 1-1.091.532l-1.017-.017-.336.014-.184.282-.297.445c-.275.42-.747.65-1.248.608l-.533-.039-.422-.03-.193.351a1.35 1.35 0 0 1-.298.402l-.134-.276a2.456 2.456 0 0 1 1.138-3.293zm.27.554a.618.618 0 0 0 .541 1.109.618.618 0 0 0-.54-1.109zm2.217-1.081a.618.618 0 0 0 .541 1.108.618.618 0 0 0-.54-1.108zm-2.441 4.621l.293.029a2.583 2.583 0 0 0 2.39-1.166l.105-.18.672.015a2.587 2.587 0 0 0 2.079-1.013l.401-.54.207.029a2.583 2.583 0 0 0 2.39-1.166l.158-.249a3.02 3.02 0 0 0 .742-.104l.44.9-9.977 4.866-.44-.9c.199-.154.38-.32.54-.52zm.44 2.53l9.977-4.866a.606.606 0 0 1 .824.284.606.606 0 0 1-.283.824l-9.977 4.866a.606.606 0 0 1-.825-.284.606.606 0 0 1 .284-.824zm1.082 2.217l9.976-4.866.54 1.108-9.976 4.866-.54-1.108z" fill="#E5E5E5" fill-rule="nonzero"/></g></g></svg>