<svg width="131" height="28" viewBox="0 0 131 28" xmlns="http://www.w3.org/2000/svg" xmlns:xlink="http://www.w3.org/1999/xlink"><defs><path id="a" d="M.2.127h26.088v27.791H.2z"/></defs><g fill="none" fill-rule="evenodd"><path d="M60.567 23.071c-1.616 0-2.884-.63-3.801-1.892-.919-1.261-1.377-3.163-1.377-5.706 0-1.154.114-2.2.344-3.14.23-.938.569-1.735 1.018-2.39a4.766 4.766 0 0 1 1.676-1.526c.668-.361 1.442-.543 2.32-.543.678 0 1.227.074 1.646.22.42.147.798.328 1.138.543l-.33 2.171a5.058 5.058 0 0 0-1.122-.739 3.048 3.048 0 0 0-1.362-.317c-.838 0-1.527.462-2.066 1.386-.538.924-.808 2.33-.808 4.217 0 1.868.225 3.308.674 4.32.449 1.013 1.152 1.519 2.11 1.519.579 0 1.078-.096 1.497-.288a4.36 4.36 0 0 0 1.048-.651l.538 1.702c-.4.332-.848.6-1.346.806-.5.206-1.098.308-1.797.308zm-12.003-7.569v7.364H46.23V8.08h2.335v6.835l3.622-6.835h2.365l-3.742 6.953 4.28 7.833h-2.544l-3.98-7.364zm-8.89-5.75c-.719 0-1.228.396-1.527 1.188-.3.792-.49 1.854-.569 3.183h3.862c0-.625-.03-1.207-.09-1.745a6.913 6.913 0 0 0-.285-1.394c-.13-.39-.31-.694-.538-.91a1.201 1.201 0 0 0-.854-.322zm4.19 12.116a5.73 5.73 0 0 1-1.646.88c-.619.216-1.307.323-2.066.323-1.556 0-2.784-.591-3.681-1.775-.899-1.183-1.347-2.919-1.347-5.207 0-1.193.084-2.288.254-3.286.17-.997.439-1.863.808-2.596.37-.734.843-1.306 1.422-1.717.579-.41 1.267-.616 2.065-.616.619 0 1.187.123 1.707.367.518.245.958.641 1.317 1.188.359.548.638 1.257.838 2.127.2.87.3 1.932.3 3.183v1.262h-6.287c0 1.682.235 2.954.703 3.814.47.86 1.173 1.29 2.11 1.29.66 0 1.243-.112 1.752-.337.509-.225.913-.444 1.212-.66l.54 1.76zm-13.65-11.91H27.61v.263a80.7 80.7 0 0 1-.045 2.56c-.03.927-.095 1.868-.194 2.824-.1.956-.24 1.897-.42 2.823-.18.927-.429 1.78-.748 2.56h4.012V9.958zm3.503 15.812H31.62v-2.904h-6.466v2.904H23.06v-4.782h.928c.339-.782.608-1.647.808-2.596.2-.949.355-1.926.464-2.934.11-1.007.18-2.034.21-3.08a106 106 0 0 0 .045-3.037V8.08h7.004v12.908h1.198v4.782zM21.713 8.08v14.786h-2.305v-6.63h-3.472v6.63H13.6V8.08h2.335v6.278h3.472V8.08h2.305zm79.221-6.648h7.786v1.201h-6.3v8.65h5.408v1.202h-5.407v9.22h6.388v1.202h-7.875zm12.946 15.215c-.14 1.235-.314 2.264-.523 3.087-.209.823-.512 1.46-.91 1.91h5.727V9.062h-3.817c-.02.804-.05 1.637-.09 2.5-.04.744-.09 1.563-.15 2.454-.059.893-.139 1.77-.238 2.632zm5.815 6.185h-8.172l-.18 2.938h-1.103v-4.125h.627c.457-.256.83-.856 1.118-1.803.288-.945.512-2.127.671-3.546.1-.925.174-1.88.224-2.866.05-.985.094-1.891.134-2.718.04-.966.07-1.911.09-2.838h6.502v13.77h1.372v4.126h-1.103l-.18-2.938zm6.55-.412c.716 0 1.324-.287 1.825-.863.501-.577.895-1.272 1.181-2.087v-4.142h-1.656c-1.289 0-2.24.298-2.854.894-.613.596-.92 1.55-.92 2.86 0 1.074.22 1.898.66 2.475.44.576 1.027.864 1.764.864zm3.436.902a11.88 11.88 0 0 1-.2-.766 8.923 8.923 0 0 1-.169-1.277c-.367.721-.827 1.292-1.38 1.713-.552.42-1.217.631-1.994.631-1.043 0-1.892-.385-2.546-1.157-.655-.771-.982-1.849-.982-3.231 0-1.623.44-2.85 1.319-3.682.88-.831 2.158-1.247 3.835-1.247h1.687v-1.904c0-1.17-.214-2.015-.644-2.54-.43-.523-1.074-.785-1.933-.785-.654 0-1.268.147-1.84.444a3.83 3.83 0 0 0-1.412 1.238l-.399-1.352c.307-.4.772-.756 1.396-1.067.624-.31 1.376-.466 2.255-.466 1.289 0 2.276.356 2.96 1.067.686.712 1.029 1.818 1.029 3.321v8.265c0 .522.03 1.048.092 1.578.061.531.142.937.245 1.217h-1.319z" fill="#000" fill-rule="nonzero"/><g transform="translate(68.721)"><mask id="b" fill="#fff"><use xlink:href="#a"/></mask><path d="M16.526 11.547a1.39 1.39 0 0 0-.055-.144 2.681 2.681 0 0 0-.216-.44 2.791 2.791 0 0 0-.55-.62 3.038 3.038 0 0 0-.75-.447 3.3 3.3 0 0 0-.89-.219 3.568 3.568 0 0 0-.962.045 3.69 3.69 0 0 0-.951.324 3.85 3.85 0 0 0-.857.599 3.952 3.952 0 0 0-.681.844 4.079 4.079 0 0 0-.564 2.202c.014.41.087.825.21 1.201.132.407.325.803.556 1.147.25.37.558.715.888.995.356.303.762.564 1.173.755a5.621 5.621 0 0 0 2.897.502 6.055 6.055 0 0 0 2.945-1.088 6.282 6.282 0 0 0 1.206-1.122 6.35 6.35 0 0 0 .885-1.436 6.445 6.445 0 0 0 .488-3.44 6.732 6.732 0 0 0-.484-1.767 7.052 7.052 0 0 0-.972-1.625 7.41 7.41 0 0 0-1.415-1.356 7.764 7.764 0 0 0-1.777-.973 8.084 8.084 0 0 0-2.03-.498 8.36 8.36 0 0 0-2.145.038 8.58 8.58 0 0 0-5.62 3.37 8.627 8.627 0 0 0-1.118 2.023 8.716 8.716 0 0 0-.548 2.287 8.904 8.904 0 0 0 .087 2.399c.143.817.394 1.605.743 2.343a9.492 9.492 0 0 0 1.375 2.117 9.891 9.891 0 0 0 1.935 1.73c.742.506 1.543.91 2.379 1.204a10.67 10.67 0 0 0 2.671.57c.94.076 1.877.032 2.786-.13a11.036 11.036 0 0 0 5.135-2.379 11.042 11.042 0 0 0 3.331-4.74c.34-.948.55-1.928.625-2.912a11.225 11.225 0 0 0-.179-3.022 11.512 11.512 0 0 0-.997-2.922 11.92 11.92 0 0 0-1.774-2.613 12.36 12.36 0 0 0-2.451-2.108A12.837 12.837 0 0 0 17.876.8a13.217 13.217 0 0 0-3.314-.646A13.534 13.534 0 0 0 2.532 6.02a13.407 13.407 0 0 0-2.307 6.726c-.074 1.23.016 2.456.268 3.646.26 1.223.68 2.402 1.249 3.502a14.36 14.36 0 0 0 2.171 3.11c.88.958 1.878 1.795 2.968 2.489a15.361 15.361 0 0 0 3.578 1.676 15.781 15.781 0 0 0 4.81.748 16.086 16.086 0 0 0 10.564-3.968l-1.658-1.789a13.527 13.527 0 0 1-6.206 3.075 13.47 13.47 0 0 1-3.42.255 13.226 13.226 0 0 1-3.32-.61 12.848 12.848 0 0 1-2.993-1.403A12.382 12.382 0 0 1 5.76 21.4a11.928 11.928 0 0 1-1.807-2.589c-.471-.912-.82-1.89-1.035-2.906a11.234 11.234 0 0 1-.221-3.016 11.029 11.029 0 0 1 8.925-10.156 10.91 10.91 0 0 1 2.779-.176c.903.058 1.803.234 2.676.523.84.278 1.647.669 2.398 1.16a9.912 9.912 0 0 1 1.964 1.69 9.512 9.512 0 0 1 1.415 2.086c.365.728.632 1.51.792 2.322.155.78.202 1.583.14 2.391a8.64 8.64 0 0 1-3.096 5.998 8.575 8.575 0 0 1-3.97 1.84 8.36 8.36 0 0 1-2.136.099 8.131 8.131 0 0 1-2.036-.435 7.809 7.809 0 0 1-1.8-.912 7.448 7.448 0 0 1-1.455-1.303 7.052 7.052 0 0 1-1.026-1.582 6.768 6.768 0 0 1-.55-1.737 6.527 6.527 0 0 1-.064-1.765 6.26 6.26 0 0 1 1.21-3.131 6.151 6.151 0 0 1 2.503-1.978 6 6 0 0 1 1.485-.42 5.662 5.662 0 0 1 2.885.318c.417.161.834.39 1.206.662.344.25.672.565.947.908.254.317.475.689.64 1.075.153.354.261.752.315 1.15a4.2 4.2 0 0 1-.009 1.136 3.922 3.922 0 0 1-.848 1.929 3.67 3.67 0 0 1-1.569 1.116c-.269.1-.572.167-.876.194a3.27 3.27 0 0 1-.844-.037 3.067 3.067 0 0 1-.752-.238 2.81 2.81 0 0 1-.614-.397 2.525 2.525 0 0 1-.446-.503 2.087 2.087 0 0 1-.361-1.105 1.875 1.875 0 0 1 .057-.503c.034-.132.1-.288.177-.419a1.54 1.54 0 0 1 .255-.312c.074-.07.187-.147.29-.2a1.18 1.18 0 0 1 .248-.086c.057.768.714 1.375 1.518 1.375.841 0 1.524-.664 1.524-1.482 0-.15-.024-.296-.067-.432l-.001-.006" fill="#000" fill-rule="nonzero" mask="url(#b)"/></g><path d="M8.389 3.354h-1.25a3.81 3.81 0 0 0-1.373.256 3.14 3.14 0 0 0-1.19.814c-.346.371-.626.864-.84 1.476-.213.614-.32 1.371-.32 2.275 0 .864.097 1.588.29 2.17.193.583.458 1.055.793 1.416a2.81 2.81 0 0 0 1.19.769 4.6 4.6 0 0 0 1.45.225h1.25v-9.4zM6.437 14.678l-3.722 8.23H0l4.088-8.801a5.78 5.78 0 0 1-2.319-2.118c-.59-.93-.884-2.197-.884-3.8 0-1.12.168-2.106.503-2.958.335-.85.793-1.556 1.373-2.117a5.676 5.676 0 0 1 2.028-1.262 7.105 7.105 0 0 1 2.44-.42h3.509v21.475h-2.35v-8.23h-1.95z" fill="#000" fill-rule="nonzero"/></g></svg>