<svg width="20" height="20" viewBox="0 0 20 20" fill="none" xmlns="http://www.w3.org/2000/svg">
<rect x="3.5" y="5.5" width="13" height="11" rx="1.5" stroke="black"/>
<mask id="path-2-inside-1" fill="white">
<path fill-rule="evenodd" clip-rule="evenodd" d="M3.10263 12.8577C3.03466 12.6538 3 12.4402 3 12.2253L3 6.44162C3 5.58076 3.55086 4.81648 4.36754 4.54426L12.3675 1.87759C13.4154 1.52829 14.5481 2.09461 14.8974 3.1425C14.9653 3.34643 15 3.55999 15 3.77496C15 3.85699 15 3.93324 15 4.00369"/>
</mask>
<path d="M4.36754 4.54426L4.68377 5.49294L4.36754 4.54426ZM12.3675 1.87759L12.6838 2.82627L12.3675 1.87759ZM14.8974 3.1425L15.8461 2.82627L14.8974 3.1425ZM15 3.77496H14H15ZM4.05132 12.5415C4.01733 12.4395 4 12.3327 4 12.2253H2C2 12.5477 2.05198 12.868 2.15395 13.1739L4.05132 12.5415ZM4 12.2253V6.44162H2V12.2253H4ZM4 6.44162C4 6.01119 4.27543 5.62905 4.68377 5.49294L4.05132 3.59557C2.82629 4.00392 2 5.15033 2 6.44162H4ZM4.68377 5.49294L12.6838 2.82627L12.0513 0.928907L4.05132 3.59557L4.68377 5.49294ZM12.6838 2.82627C13.2077 2.65163 13.774 2.93479 13.9487 3.45873L15.8461 2.82627C15.3221 1.25444 13.6231 0.404963 12.0513 0.928907L12.6838 2.82627ZM13.9487 3.45873C13.9827 3.5607 14 3.66747 14 3.77496H16C16 3.45251 15.948 3.13217 15.8461 2.82627L13.9487 3.45873ZM14 3.77496C14 3.77512 14 3.77528 14 3.77544C14 3.7756 14 3.77576 14 3.77592C14 3.77608 14 3.77624 14 3.7764C14 3.77656 14 3.77672 14 3.77688C14 3.77704 14 3.7772 14 3.77736C14 3.77752 14 3.77768 14 3.77784C14 3.778 14 3.77816 14 3.77832C14 3.77848 14 3.77864 14 3.7788C14 3.77896 14 3.77912 14 3.77928C14 3.77944 14 3.7796 14 3.77976C14 3.77992 14 3.78008 14 3.78024C14 3.7804 14 3.78056 14 3.78072C14 3.78087 14 3.78103 14 3.78119C14 3.78135 14 3.78151 14 3.78167C14 3.78183 14 3.78199 14 3.78215C14 3.78231 14 3.78247 14 3.78263C14 3.78279 14 3.78295 14 3.78311C14 3.78327 14 3.78343 14 3.78359C14 3.78375 14 3.78391 14 3.78407C14 3.78422 14 3.78438 14 3.78454C14 3.7847 14 3.78486 14 3.78502C14 3.78518 14 3.78534 14 3.7855C14 3.78566 14 3.78582 14 3.78598C14 3.78614 14 3.7863 14 3.78645C14 3.78661 14 3.78677 14 3.78693C14 3.78709 14 3.78725 14 3.78741C14 3.78757 14 3.78773 14 3.78789C14 3.78805 14 3.7882 14 3.78836C14 3.78852 14 3.78868 14 3.78884C14 3.789 14 3.78916 14 3.78932C14 3.78948 14 3.78963 14 3.78979C14 3.78995 14 3.79011 14 3.79027C14 3.79043 14 3.79059 14 3.79075C14 3.79091 14 3.79106 14 3.79122C14 3.79138 14 3.79154 14 3.7917C14 3.79186 14 3.79202 14 3.79218C14 3.79233 14 3.79249 14 3.79265C14 3.79281 14 3.79297 14 3.79313C14 3.79329 14 3.79344 14 3.7936C14 3.79376 14 3.79392 14 3.79408C14 3.79424 14 3.79439 14 3.79455C14 3.79471 14 3.79487 14 3.79503C14 3.79519 14 3.79534 14 3.7955C14 3.79566 14 3.79582 14 3.79598C14 3.79614 14 3.79629 14 3.79645C14 3.79661 14 3.79677 14 3.79693C14 3.79709 14 3.79724 14 3.7974C14 3.79756 14 3.79772 14 3.79788C14 3.79803 14 3.79819 14 3.79835C14 3.79851 14 3.79867 14 3.79882C14 3.79898 14 3.79914 14 3.7993C14 3.79946 14 3.79961 14 3.79977C14 3.79993 14 3.80009 14 3.80025C14 3.8004 14 3.80056 14 3.80072C14 3.80088 14 3.80104 14 3.80119C14 3.80135 14 3.80151 14 3.80167C14 3.80182 14 3.80198 14 3.80214C14 3.8023 14 3.80246 14 3.80261C14 3.80277 14 3.80293 14 3.80309C14 3.80324 14 3.8034 14 3.80356C14 3.80372 14 3.80387 14 3.80403C14 3.80419 14 3.80435 14 3.8045C14 3.80466 14 3.80482 14 3.80498C14 3.80513 14 3.80529 14 3.80545C14 3.80561 14 3.80576 14 3.80592C14 3.80608 14 3.80624 14 3.80639C14 3.80655 14 3.80671 14 3.80686C14 3.80702 14 3.80718 14 3.80734C14 3.80749 14 3.80765 14 3.80781C14 3.80796 14 3.80812 14 3.80828C14 3.80844 14 3.80859 14 3.80875C14 3.80891 14 3.80906 14 3.80922C14 3.80938 14 3.80954 14 3.80969C14 3.80985 14 3.81001 14 3.81016C14 3.81032 14 3.81048 14 3.81063C14 3.81079 14 3.81095 14 3.81111C14 3.81126 14 3.81142 14 3.81158C14 3.81173 14 3.81189 14 3.81205C14 3.8122 14 3.81236 14 3.81252C14 3.81267 14 3.81283 14 3.81299C14 3.81314 14 3.8133 14 3.81346C14 3.81361 14 3.81377 14 3.81393C14 3.81408 14 3.81424 14 3.8144C14 3.81455 14 3.81471 14 3.81487C14 3.81502 14 3.81518 14 3.81534C14 3.81549 14 3.81565 14 3.8158C14 3.81596 14 3.81612 14 3.81627C14 3.81643 14 3.81659 14 3.81674C14 3.8169 14 3.81706 14 3.81721C14 3.81737 14 3.81752 14 3.81768C14 3.81784 14 3.81799 14 3.81815C14 3.81831 14 3.81846 14 3.81862C14 3.81877 14 3.81893 14 3.81909C14 3.81924 14 3.8194 14 3.81955C14 3.81971 14 3.81987 14 3.82002C14 3.82018 14 3.82033 14 3.82049C14 3.82065 14 3.8208 14 3.82096C14 3.82111 14 3.82127 14 3.82143C14 3.82158 14 3.82174 14 3.82189C14 3.82205 14 3.82221 14 3.82236C14 3.82252 14 3.82267 14 3.82283C14 3.82298 14 3.82314 14 3.8233C14 3.82345 14 3.82361 14 3.82376C14 3.82392 14 3.82407 14 3.82423C14 3.82439 14 3.82454 14 3.8247C14 3.82485 14 3.82501 14 3.82516C14 3.82532 14 3.82547 14 3.82563C14 3.82579 14 3.82594 14 3.8261C14 3.82625 14 3.82641 14 3.82656C14 3.82672 14 3.82687 14 3.82703C14 3.82718 14 3.82734 14 3.82749C14 3.82765 14 3.82781 14 3.82796C14 3.82812 14 3.82827 14 3.82843C14 3.82858 14 3.82874 14 3.82889C14 3.82905 14 3.8292 14 3.82936C14 3.82951 14 3.82967 14 3.82982C14 3.82998 14 3.83013 14 3.83029C14 3.83044 14 3.8306 14 3.83075C14 3.83091 14 3.83106 14 3.83122C14 3.83137 14 3.83153 14 3.83168C14 3.83184 14 3.83199 14 3.83215C14 3.8323 14 3.83246 14 3.83261C14 3.83277 14 3.83292 14 3.83308C14 3.83323 14 3.83339 14 3.83354C14 3.8337 14 3.83385 14 3.83401C14 3.83416 14 3.83431 14 3.83447C14 3.83462 14 3.83478 14 3.83493C14 3.83509 14 3.83524 14 3.8354C14 3.83555 14 3.83571 14 3.83586C14 3.83602 14 3.83617 14 3.83632C14 3.83648 14 3.83663 14 3.83679C14 3.83694 14 3.8371 14 3.83725C14 3.83741 14 3.83756 14 3.83771C14 3.83787 14 3.83802 14 3.83818C14 3.83833 14 3.83849 14 3.83864C14 3.83879 14 3.83895 14 3.8391C14 3.83926 14 3.83941 14 3.83957C14 3.83972 14 3.83987 14 3.84003C14 3.84018 14 3.84034 14 3.84049C14 3.84064 14 3.8408 14 3.84095C14 3.84111 14 3.84126 14 3.84141C14 3.84157 14 3.84172 14 3.84188C14 3.84203 14 3.84218 14 3.84234C14 3.84249 14 3.84265 14 3.8428C14 3.84295 14 3.84311 14 3.84326C14 3.84341 14 3.84357 14 3.84372C14 3.84388 14 3.84403 14 3.84418C14 3.84434 14 3.84449 14 3.84464C14 3.8448 14 3.84495 14 3.84511C14 3.84526 14 3.84541 14 3.84557C14 3.84572 14 3.84587 14 3.84603C14 3.84618 14 3.84633 14 3.84649C14 3.84664 14 3.84679 14 3.84695C14 3.8471 14 3.84726 14 3.84741C14 3.84756 14 3.84772 14 3.84787C14 3.84802 14 3.84818 14 3.84833C14 3.84848 14 3.84864 14 3.84879C14 3.84894 14 3.8491 14 3.84925C14 3.8494 14 3.84956 14 3.84971C14 3.84986 14 3.85001 14 3.85017C14 3.85032 14 3.85047 14 3.85063C14 3.85078 14 3.85093 14 3.85109C14 3.85124 14 3.85139 14 3.85155C14 3.8517 14 3.85185 14 3.852C14 3.85216 14 3.85231 14 3.85246C14 3.85262 14 3.85277 14 3.85292C14 3.85308 14 3.85323 14 3.85338C14 3.85353 14 3.85369 14 3.85384C14 3.85399 14 3.85415 14 3.8543C14 3.85445 14 3.8546 14 3.85476C14 3.85491 14 3.85506 14 3.85521C14 3.85537 14 3.85552 14 3.85567C14 3.85582 14 3.85598 14 3.85613C14 3.85628 14 3.85643 14 3.85659C14 3.85674 14 3.85689 14 3.85704C14 3.8572 14 3.85735 14 3.8575C14 3.85765 14 3.85781 14 3.85796C14 3.85811 14 3.85826 14 3.85842C14 3.85857 14 3.85872 14 3.85887C14 3.85903 14 3.85918 14 3.85933C14 3.85948 14 3.85964 14 3.85979C14 3.85994 14 3.86009 14 3.86024C14 3.8604 14 3.86055 14 3.8607C14 3.86085 14 3.861 14 3.86116C14 3.86131 14 3.86146 14 3.86161C14 3.86177 14 3.86192 14 3.86207C14 3.86222 14 3.86237 14 3.86253C14 3.86268 14 3.86283 14 3.86298C14 3.86313 14 3.86328 14 3.86344C14 3.86359 14 3.86374 14 3.86389C14 3.86404 14 3.8642 14 3.86435C14 3.8645 14 3.86465 14 3.8648C14 3.86495 14 3.86511 14 3.86526C14 3.86541 14 3.86556 14 3.86571C14 3.86586 14 3.86602 14 3.86617C14 3.86632 14 3.86647 14 3.86662C14 3.86677 14 3.86693 14 3.86708C14 3.86723 14 3.86738 14 3.86753C14 3.86768 14 3.86783 14 3.86799C14 3.86814 14 3.86829 14 3.86844C14 3.86859 14 3.86874 14 3.86889C14 3.86905 14 3.8692 14 3.86935C14 3.8695 14 3.86965 14 3.8698C14 3.86995 14 3.87011 14 3.87026C14 3.87041 14 3.87056 14 3.87071C14 3.87086 14 3.87101 14 3.87116C14 3.87131 14 3.87147 14 3.87162C14 3.87177 14 3.87192 14 3.87207C14 3.87222 14 3.87237 14 3.87252C14 3.87267 14 3.87282 14 3.87298C14 3.87313 14 3.87328 14 3.87343C14 3.87358 14 3.87373 14 3.87388C14 3.87403 14 3.87418 14 3.87433C14 3.87448 14 3.87464 14 3.87479C14 3.87494 14 3.87509 14 3.87524C14 3.87539 14 3.87554 14 3.87569C14 3.87584 14 3.87599 14 3.87614C14 3.87629 14 3.87644 14 3.87659C14 3.87674 14 3.8769 14 3.87705C14 3.8772 14 3.87735 14 3.8775C14 3.87765 14 3.8778 14 3.87795C14 3.8781 14 3.87825 14 3.8784C14 3.87855 14 3.8787 14 3.87885C14 3.879 14 3.87915 14 3.8793C14 3.87945 14 3.8796 14 3.87975C14 3.8799 14 3.88005 14 3.8802C14 3.88035 14 3.8805 14 3.88065C14 3.88081 14 3.88096 14 3.88111C14 3.88126 14 3.88141 14 3.88156C14 3.88171 14 3.88186 14 3.88201C14 3.88216 14 3.88231 14 3.88246C14 3.88261 14 3.88276 14 3.88291C14 3.88306 14 3.88321 14 3.88336C14 3.88351 14 3.88366 14 3.88381C14 3.88396 14 3.88411 14 3.88426C14 3.88441 14 3.88455 14 3.8847C14 3.88485 14 3.885 14 3.88515C14 3.8853 14 3.88545 14 3.8856C14 3.88575 14 3.8859 14 3.88605C14 3.8862 14 3.88635 14 3.8865C14 3.88665 14 3.8868 14 3.88695C14 3.8871 14 3.88725 14 3.8874C14 3.88755 14 3.8877 14 3.88785C14 3.888 14 3.88815 14 3.8883C14 3.88845 14 3.88859 14 3.88874C14 3.88889 14 3.88904 14 3.88919C14 3.88934 14 3.88949 14 3.88964C14 3.88979 14 3.88994 14 3.89009C14 3.89024 14 3.89039 14 3.89054C14 3.89068 14 3.89083 14 3.89098C14 3.89113 14 3.89128 14 3.89143C14 3.89158 14 3.89173 14 3.89188C14 3.89203 14 3.89218 14 3.89233C14 3.89247 14 3.89262 14 3.89277C14 3.89292 14 3.89307 14 3.89322C14 3.89337 14 3.89352 14 3.89367C14 3.89382 14 3.89396 14 3.89411C14 3.89426 14 3.89441 14 3.89456C14 3.89471 14 3.89486 14 3.89501C14 3.89515 14 3.8953 14 3.89545C14 3.8956 14 3.89575 14 3.8959C14 3.89605 14 3.8962 14 3.89634C14 3.89649 14 3.89664 14 3.89679C14 3.89694 14 3.89709 14 3.89724C14 3.89738 14 3.89753 14 3.89768C14 3.89783 14 3.89798 14 3.89813C14 3.89828 14 3.89842 14 3.89857C14 3.89872 14 3.89887 14 3.89902C14 3.89917 14 3.89931 14 3.89946C14 3.89961 14 3.89976 14 3.89991C14 3.90006 14 3.9002 14 3.90035C14 3.9005 14 3.90065 14 3.9008C14 3.90095 14 3.90109 14 3.90124C14 3.90139 14 3.90154 14 3.90169C14 3.90183 14 3.90198 14 3.90213C14 3.90228 14 3.90243 14 3.90257C14 3.90272 14 3.90287 14 3.90302C14 3.90317 14 3.90331 14 3.90346C14 3.90361 14 3.90376 14 3.90391C14 3.90405 14 3.9042 14 3.90435C14 3.9045 14 3.90465 14 3.90479C14 3.90494 14 3.90509 14 3.90524C14 3.90538 14 3.90553 14 3.90568C14 3.90583 14 3.90598 14 3.90612C14 3.90627 14 3.90642 14 3.90657C14 3.90671 14 3.90686 14 3.90701C14 3.90716 14 3.9073 14 3.90745C14 3.9076 14 3.90775 14 3.90789C14 3.90804 14 3.90819 14 3.90834C14 3.90848 14 3.90863 14 3.90878C14 3.90893 14 3.90907 14 3.90922C14 3.90937 14 3.90952 14 3.90966C14 3.90981 14 3.90996 14 3.9101C14 3.91025 14 3.9104 14 3.91055C14 3.91069 14 3.91084 14 3.91099C14 3.91114 14 3.91128 14 3.91143C14 3.91158 14 3.91172 14 3.91187C14 3.91202 14 3.91217 14 3.91231C14 3.91246 14 3.91261 14 3.91275C14 3.9129 14 3.91305 14 3.91319C14 3.91334 14 3.91349 14 3.91364C14 3.91378 14 3.91393 14 3.91408C14 3.91422 14 3.91437 14 3.91452C14 3.91466 14 3.91481 14 3.91496C14 3.9151 14 3.91525 14 3.9154C14 3.91554 14 3.91569 14 3.91584C14 3.91598 14 3.91613 14 3.91628C14 3.91642 14 3.91657 14 3.91672C14 3.91686 14 3.91701 14 3.91716C14 3.9173 14 3.91745 14 3.9176C14 3.91774 14 3.91789 14 3.91804C14 3.91818 14 3.91833 14 3.91848C14 3.91862 14 3.91877 14 3.91892C14 3.91906 14 3.91921 14 3.91935C14 3.9195 14 3.91965 14 3.91979C14 3.91994 14 3.92009 14 3.92023C14 3.92038 14 3.92052 14 3.92067C14 3.92082 14 3.92096 14 3.92111C14 3.92126 14 3.9214 14 3.92155C14 3.92169 14 3.92184 14 3.92199C14 3.92213 14 3.92228 14 3.92242C14 3.92257 14 3.92272 14 3.92286C14 3.92301 14 3.92315 14 3.9233C14 3.92345 14 3.92359 14 3.92374C14 3.92388 14 3.92403 14 3.92418C14 3.92432 14 3.92447 14 3.92461C14 3.92476 14 3.92491 14 3.92505C14 3.9252 14 3.92534 14 3.92549C14 3.92563 14 3.92578 14 3.92593C14 3.92607 14 3.92622 14 3.92636C14 3.92651 14 3.92665 14 3.9268C14 3.92694 14 3.92709 14 3.92724C14 3.92738 14 3.92753 14 3.92767C14 3.92782 14 3.92796 14 3.92811C14 3.92825 14 3.9284 14 3.92855C14 3.92869 14 3.92884 14 3.92898C14 3.92913 14 3.92927 14 3.92942C14 3.92956 14 3.92971 14 3.92985C14 3.93 14 3.93014 14 3.93029C14 3.93043 14 3.93058 14 3.93073C14 3.93087 14 3.93102 14 3.93116C14 3.93131 14 3.93145 14 3.9316C14 3.93174 14 3.93189 14 3.93203C14 3.93218 14 3.93232 14 3.93247C14 3.93261 14 3.93276 14 3.9329C14 3.93305 14 3.93319 14 3.93334C14 3.93348 14 3.93363 14 3.93377C14 3.93392 14 3.93406 14 3.93421C14 3.93435 14 3.9345 14 3.93464C14 3.93479 14 3.93493 14 3.93507C14 3.93522 14 3.93536 14 3.93551C14 3.93565 14 3.9358 14 3.93594C14 3.93609 14 3.93623 14 3.93638C14 3.93652 14 3.93667 14 3.93681C14 3.93696 14 3.9371 14 3.93724C14 3.93739 14 3.93753 14 3.93768C14 3.93782 14 3.93797 14 3.93811C14 3.93826 14 3.9384 14 3.93854C14 3.93869 14 3.93883 14 3.93898C14 3.93912 14 3.93927 14 3.93941C14 3.93956 14 3.9397 14 3.93984C14 3.93999 14 3.94013 14 3.94028C14 3.94042 14 3.94057 14 3.94071C14 3.94085 14 3.941 14 3.94114C14 3.94129 14 3.94143 14 3.94157C14 3.94172 14 3.94186 14 3.94201C14 3.94215 14 3.94229 14 3.94244C14 3.94258 14 3.94273 14 3.94287C14 3.94301 14 3.94316 14 3.9433C14 3.94345 14 3.94359 14 3.94373C14 3.94388 14 3.94402 14 3.94417C14 3.94431 14 3.94445 14 3.9446C14 3.94474 14 3.94488 14 3.94503C14 3.94517 14 3.94532 14 3.94546C14 3.9456 14 3.94575 14 3.94589C14 3.94603 14 3.94618 14 3.94632C14 3.94647 14 3.94661 14 3.94675C14 3.9469 14 3.94704 14 3.94718C14 3.94733 14 3.94747 14 3.94761C14 3.94776 14 3.9479 14 3.94804C14 3.94819 14 3.94833 14 3.94847C14 3.94862 14 3.94876 14 3.9489C14 3.94905 14 3.94919 14 3.94933C14 3.94948 14 3.94962 14 3.94976C14 3.94991 14 3.95005 14 3.95019C14 3.95034 14 3.95048 14 3.95062C14 3.95077 14 3.95091 14 3.95105C14 3.9512 14 3.95134 14 3.95148C14 3.95163 14 3.95177 14 3.95191C14 3.95205 14 3.9522 14 3.95234C14 3.95248 14 3.95263 14 3.95277C14 3.95291 14 3.95306 14 3.9532C14 3.95334 14 3.95348 14 3.95363C14 3.95377 14 3.95391 14 3.95406C14 3.9542 14 3.95434 14 3.95448C14 3.95463 14 3.95477 14 3.95491C14 3.95505 14 3.9552 14 3.95534C14 3.95548 14 3.95563 14 3.95577C14 3.95591 14 3.95605 14 3.9562C14 3.95634 14 3.95648 14 3.95662C14 3.95677 14 3.95691 14 3.95705C14 3.95719 14 3.95734 14 3.95748C14 3.95762 14 3.95776 14 3.95791C14 3.95805 14 3.95819 14 3.95833C14 3.95848 14 3.95862 14 3.95876C14 3.9589 14 3.95904 14 3.95919C14 3.95933 14 3.95947 14 3.95961C14 3.95976 14 3.9599 14 3.96004C14 3.96018 14 3.96033 14 3.96047C14 3.96061 14 3.96075 14 3.96089C14 3.96104 14 3.96118 14 3.96132C14 3.96146 14 3.9616 14 3.96175C14 3.96189 14 3.96203 14 3.96217C14 3.96231 14 3.96246 14 3.9626C14 3.96274 14 3.96288 14 3.96302C14 3.96317 14 3.96331 14 3.96345C14 3.96359 14 3.96373 14 3.96387C14 3.96402 14 3.96416 14 3.9643C14 3.96444 14 3.96458 14 3.96473C14 3.96487 14 3.96501 14 3.96515C14 3.96529 14 3.96543 14 3.96558C14 3.96572 14 3.96586 14 3.966C14 3.96614 14 3.96628 14 3.96642C14 3.96657 14 3.96671 14 3.96685C14 3.96699 14 3.96713 14 3.96727C14 3.96742 14 3.96756 14 3.9677C14 3.96784 14 3.96798 14 3.96812C14 3.96826 14 3.96841 14 3.96855C14 3.96869 14 3.96883 14 3.96897C14 3.96911 14 3.96925 14 3.96939C14 3.96954 14 3.96968 14 3.96982C14 3.96996 14 3.9701 14 3.97024C14 3.97038 14 3.97052 14 3.97066C14 3.97081 14 3.97095 14 3.97109C14 3.97123 14 3.97137 14 3.97151C14 3.97165 14 3.97179 14 3.97193C14 3.97207 14 3.97222 14 3.97236C14 3.9725 14 3.97264 14 3.97278C14 3.97292 14 3.97306 14 3.9732C14 3.97334 14 3.97348 14 3.97362C14 3.97376 14 3.97391 14 3.97405C14 3.97419 14 3.97433 14 3.97447C14 3.97461 14 3.97475 14 3.97489C14 3.97503 14 3.97517 14 3.97531C14 3.97545 14 3.97559 14 3.97573C14 3.97587 14 3.97602 14 3.97616C14 3.9763 14 3.97644 14 3.97658C14 3.97672 14 3.97686 14 3.977C14 3.97714 14 3.97728 14 3.97742C14 3.97756 14 3.9777 14 3.97784C14 3.97798 14 3.97812 14 3.97826C14 3.9784 14 3.97854 14 3.97868C14 3.97882 14 3.97896 14 3.9791C14 3.97924 14 3.97938 14 3.97952C14 3.97966 14 3.9798 14 3.97994C14 3.98008 14 3.98022 14 3.98037C14 3.9805 14 3.98065 14 3.98079C14 3.98093 14 3.98107 14 3.98121C14 3.98135 14 3.98149 14 3.98163C14 3.98177 14 3.9819 14 3.98204C14 3.98218 14 3.98232 14 3.98246C14 3.9826 14 3.98274 14 3.98288C14 3.98302 14 3.98316 14 3.9833C14 3.98344 14 3.98358 14 3.98372C14 3.98386 14 3.984 14 3.98414C14 3.98428 14 3.98442 14 3.98456C14 3.9847 14 3.98484 14 3.98498C14 3.98512 14 3.98526 14 3.9854C14 3.98554 14 3.98568 14 3.98582C14 3.98596 14 3.9861 14 3.98624C14 3.98637 14 3.98651 14 3.98665C14 3.98679 14 3.98693 14 3.98707C14 3.98721 14 3.98735 14 3.98749C14 3.98763 14 3.98777 14 3.98791C14 3.98805 14 3.98819 14 3.98833C14 3.98846 14 3.9886 14 3.98874C14 3.98888 14 3.98902 14 3.98916C14 3.9893 14 3.98944 14 3.98958C14 3.98972 14 3.98986 14 3.99C14 3.99013 14 3.99027 14 3.99041C14 3.99055 14 3.99069 14 3.99083C14 3.99097 14 3.99111 14 3.99125C14 3.99139 14 3.99152 14 3.99166C14 3.9918 14 3.99194 14 3.99208C14 3.99222 14 3.99236 14 3.9925C14 3.99264 14 3.99277 14 3.99291C14 3.99305 14 3.99319 14 3.99333C14 3.99347 14 3.99361 14 3.99374C14 3.99388 14 3.99402 14 3.99416C14 3.9943 14 3.99444 14 3.99458C14 3.99472 14 3.99485 14 3.99499C14 3.99513 14 3.99527 14 3.99541C14 3.99555 14 3.99568 14 3.99582C14 3.99596 14 3.9961 14 3.99624C14 3.99638 14 3.99652 14 3.99665C14 3.99679 14 3.99693 14 3.99707C14 3.99721 14 3.99735 14 3.99748C14 3.99762 14 3.99776 14 3.9979C14 3.99804 14 3.99817 14 3.99831C14 3.99845 14 3.99859 14 3.99873C14 3.99887 14 3.999 14 3.99914C14 3.99928 14 3.99942 14 3.99956C14 3.99969 14 3.99983 14 3.99997C14 4.00011 14 4.00025 14 4.00038C14 4.00052 14 4.00066 14 4.0008C14 4.00094 14 4.00107 14 4.00121C14 4.00135 14 4.00149 14 4.00163C14 4.00176 14 4.0019 14 4.00204C14 4.00218 14 4.00231 14 4.00245C14 4.00259 14 4.00273 14 4.00286C14 4.003 14 4.00314 14 4.00328C14 4.00342 14 4.00355 14 4.00369H16C16 4.00355 16 4.00342 16 4.00328C16 4.00314 16 4.003 16 4.00286C16 4.00273 16 4.00259 16 4.00245C16 4.00231 16 4.00218 16 4.00204C16 4.0019 16 4.00176 16 4.00163C16 4.00149 16 4.00135 16 4.00121C16 4.00107 16 4.00094 16 4.0008C16 4.00066 16 4.00052 16 4.00038C16 4.00025 16 4.00011 16 3.99997C16 3.99983 16 3.99969 16 3.99956C16 3.99942 16 3.99928 16 3.99914C16 3.999 16 3.99887 16 3.99873C16 3.99859 16 3.99845 16 3.99831C16 3.99817 16 3.99804 16 3.9979C16 3.99776 16 3.99762 16 3.99748C16 3.99735 16 3.99721 16 3.99707C16 3.99693 16 3.99679 16 3.99665C16 3.99652 16 3.99638 16 3.99624C16 3.9961 16 3.99596 16 3.99582C16 3.99568 16 3.99555 16 3.99541C16 3.99527 16 3.99513 16 3.99499C16 3.99485 16 3.99472 16 3.99458C16 3.99444 16 3.9943 16 3.99416C16 3.99402 16 3.99388 16 3.99374C16 3.99361 16 3.99347 16 3.99333C16 3.99319 16 3.99305 16 3.99291C16 3.99277 16 3.99264 16 3.9925C16 3.99236 16 3.99222 16 3.99208C16 3.99194 16 3.9918 16 3.99166C16 3.99152 16 3.99139 16 3.99125C16 3.99111 16 3.99097 16 3.99083C16 3.99069 16 3.99055 16 3.99041C16 3.99027 16 3.99013 16 3.99C16 3.98986 16 3.98972 16 3.98958C16 3.98944 16 3.9893 16 3.98916C16 3.98902 16 3.98888 16 3.98874C16 3.9886 16 3.98846 16 3.98833C16 3.98819 16 3.98805 16 3.98791C16 3.98777 16 3.98763 16 3.98749C16 3.98735 16 3.98721 16 3.98707C16 3.98693 16 3.98679 16 3.98665C16 3.98651 16 3.98637 16 3.98624C16 3.9861 16 3.98596 16 3.98582C16 3.98568 16 3.98554 16 3.9854C16 3.98526 16 3.98512 16 3.98498C16 3.98484 16 3.9847 16 3.98456C16 3.98442 16 3.98428 16 3.98414C16 3.984 16 3.98386 16 3.98372C16 3.98358 16 3.98344 16 3.9833C16 3.98316 16 3.98302 16 3.98288C16 3.98274 16 3.9826 16 3.98246C16 3.98232 16 3.98218 16 3.98204C16 3.9819 16 3.98177 16 3.98163C16 3.98149 16 3.98135 16 3.98121C16 3.98107 16 3.98093 16 3.98079C16 3.98065 16 3.9805 16 3.98037C16 3.98022 16 3.98008 16 3.97994C16 3.9798 16 3.97966 16 3.97952C16 3.97938 16 3.97924 16 3.9791C16 3.97896 16 3.97882 16 3.97868C16 3.97854 16 3.9784 16 3.97826C16 3.97812 16 3.97798 16 3.97784C16 3.9777 16 3.97756 16 3.97742C16 3.97728 16 3.97714 16 3.977C16 3.97686 16 3.97672 16 3.97658C16 3.97644 16 3.9763 16 3.97616C16 3.97602 16 3.97587 16 3.97573C16 3.97559 16 3.97545 16 3.97531C16 3.97517 16 3.97503 16 3.97489C16 3.97475 16 3.97461 16 3.97447C16 3.97433 16 3.97419 16 3.97405C16 3.97391 16 3.97376 16 3.97362C16 3.97348 16 3.97334 16 3.9732C16 3.97306 16 3.97292 16 3.97278C16 3.97264 16 3.9725 16 3.97236C16 3.97222 16 3.97207 16 3.97193C16 3.97179 16 3.97165 16 3.97151C16 3.97137 16 3.97123 16 3.97109C16 3.97095 16 3.97081 16 3.97066C16 3.97052 16 3.97038 16 3.97024C16 3.9701 16 3.96996 16 3.96982C16 3.96968 16 3.96954 16 3.96939C16 3.96925 16 3.96911 16 3.96897C16 3.96883 16 3.96869 16 3.96855C16 3.96841 16 3.96826 16 3.96812C16 3.96798 16 3.96784 16 3.9677C16 3.96756 16 3.96742 16 3.96727C16 3.96713 16 3.96699 16 3.96685C16 3.96671 16 3.96657 16 3.96642C16 3.96628 16 3.96614 16 3.966C16 3.96586 16 3.96572 16 3.96558C16 3.96543 16 3.96529 16 3.96515C16 3.96501 16 3.96487 16 3.96473C16 3.96458 16 3.96444 16 3.9643C16 3.96416 16 3.96402 16 3.96387C16 3.96373 16 3.96359 16 3.96345C16 3.96331 16 3.96317 16 3.96302C16 3.96288 16 3.96274 16 3.9626C16 3.96246 16 3.96231 16 3.96217C16 3.96203 16 3.96189 16 3.96175C16 3.9616 16 3.96146 16 3.96132C16 3.96118 16 3.96104 16 3.96089C16 3.96075 16 3.96061 16 3.96047C16 3.96033 16 3.96018 16 3.96004C16 3.9599 16 3.95976 16 3.95961C16 3.95947 16 3.95933 16 3.95919C16 3.95904 16 3.9589 16 3.95876C16 3.95862 16 3.95848 16 3.95833C16 3.95819 16 3.95805 16 3.95791C16 3.95776 16 3.95762 16 3.95748C16 3.95734 16 3.95719 16 3.95705C16 3.95691 16 3.95677 16 3.95662C16 3.95648 16 3.95634 16 3.9562C16 3.95605 16 3.95591 16 3.95577C16 3.95563 16 3.95548 16 3.95534C16 3.9552 16 3.95505 16 3.95491C16 3.95477 16 3.95463 16 3.95448C16 3.95434 16 3.9542 16 3.95406C16 3.95391 16 3.95377 16 3.95363C16 3.95348 16 3.95334 16 3.9532C16 3.95306 16 3.95291 16 3.95277C16 3.95263 16 3.95248 16 3.95234C16 3.9522 16 3.95205 16 3.95191C16 3.95177 16 3.95163 16 3.95148C16 3.95134 16 3.9512 16 3.95105C16 3.95091 16 3.95077 16 3.95062C16 3.95048 16 3.95034 16 3.95019C16 3.95005 16 3.94991 16 3.94976C16 3.94962 16 3.94948 16 3.94933C16 3.94919 16 3.94905 16 3.9489C16 3.94876 16 3.94862 16 3.94847C16 3.94833 16 3.94819 16 3.94804C16 3.9479 16 3.94776 16 3.94761C16 3.94747 16 3.94733 16 3.94718C16 3.94704 16 3.9469 16 3.94675C16 3.94661 16 3.94647 16 3.94632C16 3.94618 16 3.94603 16 3.94589C16 3.94575 16 3.9456 16 3.94546C16 3.94532 16 3.94517 16 3.94503C16 3.94488 16 3.94474 16 3.9446C16 3.94445 16 3.94431 16 3.94417C16 3.94402 16 3.94388 16 3.94373C16 3.94359 16 3.94345 16 3.9433C16 3.94316 16 3.94301 16 3.94287C16 3.94273 16 3.94258 16 3.94244C16 3.94229 16 3.94215 16 3.94201C16 3.94186 16 3.94172 16 3.94157C16 3.94143 16 3.94129 16 3.94114C16 3.941 16 3.94085 16 3.94071C16 3.94057 16 3.94042 16 3.94028C16 3.94013 16 3.93999 16 3.93984C16 3.9397 16 3.93956 16 3.93941C16 3.93927 16 3.93912 16 3.93898C16 3.93883 16 3.93869 16 3.93854C16 3.9384 16 3.93826 16 3.93811C16 3.93797 16 3.93782 16 3.93768C16 3.93753 16 3.93739 16 3.93724C16 3.9371 16 3.93696 16 3.93681C16 3.93667 16 3.93652 16 3.93638C16 3.93623 16 3.93609 16 3.93594C16 3.9358 16 3.93565 16 3.93551C16 3.93536 16 3.93522 16 3.93507C16 3.93493 16 3.93479 16 3.93464C16 3.9345 16 3.93435 16 3.93421C16 3.93406 16 3.93392 16 3.93377C16 3.93363 16 3.93348 16 3.93334C16 3.93319 16 3.93305 16 3.9329C16 3.93276 16 3.93261 16 3.93247C16 3.93232 16 3.93218 16 3.93203C16 3.93189 16 3.93174 16 3.9316C16 3.93145 16 3.93131 16 3.93116C16 3.93102 16 3.93087 16 3.93073C16 3.93058 16 3.93043 16 3.93029C16 3.93014 16 3.93 16 3.92985C16 3.92971 16 3.92956 16 3.92942C16 3.92927 16 3.92913 16 3.92898C16 3.92884 16 3.92869 16 3.92855C16 3.9284 16 3.92825 16 3.92811C16 3.92796 16 3.92782 16 3.92767C16 3.92753 16 3.92738 16 3.92724C16 3.92709 16 3.92694 16 3.9268C16 3.92665 16 3.92651 16 3.92636C16 3.92622 16 3.92607 16 3.92593C16 3.92578 16 3.92563 16 3.92549C16 3.92534 16 3.9252 16 3.92505C16 3.92491 16 3.92476 16 3.92461C16 3.92447 16 3.92432 16 3.92418C16 3.92403 16 3.92388 16 3.92374C16 3.92359 16 3.92345 16 3.9233C16 3.92315 16 3.92301 16 3.92286C16 3.92272 16 3.92257 16 3.92242C16 3.92228 16 3.92213 16 3.92199C16 3.92184 16 3.92169 16 3.92155C16 3.9214 16 3.92126 16 3.92111C16 3.92096 16 3.92082 16 3.92067C16 3.92052 16 3.92038 16 3.92023C16 3.92009 16 3.91994 16 3.91979C16 3.91965 16 3.9195 16 3.91935C16 3.91921 16 3.91906 16 3.91892C16 3.91877 16 3.91862 16 3.91848C16 3.91833 16 3.91818 16 3.91804C16 3.91789 16 3.91774 16 3.9176C16 3.91745 16 3.9173 16 3.91716C16 3.91701 16 3.91686 16 3.91672C16 3.91657 16 3.91642 16 3.91628C16 3.91613 16 3.91598 16 3.91584C16 3.91569 16 3.91554 16 3.9154C16 3.91525 16 3.9151 16 3.91496C16 3.91481 16 3.91466 16 3.91452C16 3.91437 16 3.91422 16 3.91408C16 3.91393 16 3.91378 16 3.91364C16 3.91349 16 3.91334 16 3.91319C16 3.91305 16 3.9129 16 3.91275C16 3.91261 16 3.91246 16 3.91231C16 3.91217 16 3.91202 16 3.91187C16 3.91172 16 3.91158 16 3.91143C16 3.91128 16 3.91114 16 3.91099C16 3.91084 16 3.91069 16 3.91055C16 3.9104 16 3.91025 16 3.9101C16 3.90996 16 3.90981 16 3.90966C16 3.90952 16 3.90937 16 3.90922C16 3.90907 16 3.90893 16 3.90878C16 3.90863 16 3.90848 16 3.90834C16 3.90819 16 3.90804 16 3.90789C16 3.90775 16 3.9076 16 3.90745C16 3.9073 16 3.90716 16 3.90701C16 3.90686 16 3.90671 16 3.90657C16 3.90642 16 3.90627 16 3.90612C16 3.90598 16 3.90583 16 3.90568C16 3.90553 16 3.90538 16 3.90524C16 3.90509 16 3.90494 16 3.90479C16 3.90465 16 3.9045 16 3.90435C16 3.9042 16 3.90405 16 3.90391C16 3.90376 16 3.90361 16 3.90346C16 3.90331 16 3.90317 16 3.90302C16 3.90287 16 3.90272 16 3.90257C16 3.90243 16 3.90228 16 3.90213C16 3.90198 16 3.90183 16 3.90169C16 3.90154 16 3.90139 16 3.90124C16 3.90109 16 3.90095 16 3.9008C16 3.90065 16 3.9005 16 3.90035C16 3.9002 16 3.90006 16 3.89991C16 3.89976 16 3.89961 16 3.89946C16 3.89931 16 3.89917 16 3.89902C16 3.89887 16 3.89872 16 3.89857C16 3.89842 16 3.89828 16 3.89813C16 3.89798 16 3.89783 16 3.89768C16 3.89753 16 3.89738 16 3.89724C16 3.89709 16 3.89694 16 3.89679C16 3.89664 16 3.89649 16 3.89634C16 3.8962 16 3.89605 16 3.8959C16 3.89575 16 3.8956 16 3.89545C16 3.8953 16 3.89515 16 3.89501C16 3.89486 16 3.89471 16 3.89456C16 3.89441 16 3.89426 16 3.89411C16 3.89396 16 3.89382 16 3.89367C16 3.89352 16 3.89337 16 3.89322C16 3.89307 16 3.89292 16 3.89277C16 3.89262 16 3.89247 16 3.89233C16 3.89218 16 3.89203 16 3.89188C16 3.89173 16 3.89158 16 3.89143C16 3.89128 16 3.89113 16 3.89098C16 3.89083 16 3.89068 16 3.89054C16 3.89039 16 3.89024 16 3.89009C16 3.88994 16 3.88979 16 3.88964C16 3.88949 16 3.88934 16 3.88919C16 3.88904 16 3.88889 16 3.88874C16 3.88859 16 3.88845 16 3.8883C16 3.88815 16 3.888 16 3.88785C16 3.8877 16 3.88755 16 3.8874C16 3.88725 16 3.8871 16 3.88695C16 3.8868 16 3.88665 16 3.8865C16 3.88635 16 3.8862 16 3.88605C16 3.8859 16 3.88575 16 3.8856C16 3.88545 16 3.8853 16 3.88515C16 3.885 16 3.88485 16 3.8847C16 3.88455 16 3.88441 16 3.88426C16 3.88411 16 3.88396 16 3.88381C16 3.88366 16 3.88351 16 3.88336C16 3.88321 16 3.88306 16 3.88291C16 3.88276 16 3.88261 16 3.88246C16 3.88231 16 3.88216 16 3.88201C16 3.88186 16 3.88171 16 3.88156C16 3.88141 16 3.88126 16 3.88111C16 3.88096 16 3.88081 16 3.88065C16 3.8805 16 3.88035 16 3.8802C16 3.88005 16 3.8799 16 3.87975C16 3.8796 16 3.87945 16 3.8793C16 3.87915 16 3.879 16 3.87885C16 3.8787 16 3.87855 16 3.8784C16 3.87825 16 3.8781 16 3.87795C16 3.8778 16 3.87765 16 3.8775C16 3.87735 16 3.8772 16 3.87705C16 3.8769 16 3.87674 16 3.87659C16 3.87644 16 3.87629 16 3.87614C16 3.87599 16 3.87584 16 3.87569C16 3.87554 16 3.87539 16 3.87524C16 3.87509 16 3.87494 16 3.87479C16 3.87464 16 3.87448 16 3.87433C16 3.87418 16 3.87403 16 3.87388C16 3.87373 16 3.87358 16 3.87343C16 3.87328 16 3.87313 16 3.87298C16 3.87282 16 3.87267 16 3.87252C16 3.87237 16 3.87222 16 3.87207C16 3.87192 16 3.87177 16 3.87162C16 3.87147 16 3.87131 16 3.87116C16 3.87101 16 3.87086 16 3.87071C16 3.87056 16 3.87041 16 3.87026C16 3.87011 16 3.86995 16 3.8698C16 3.86965 16 3.8695 16 3.86935C16 3.8692 16 3.86905 16 3.86889C16 3.86874 16 3.86859 16 3.86844C16 3.86829 16 3.86814 16 3.86799C16 3.86783 16 3.86768 16 3.86753C16 3.86738 16 3.86723 16 3.86708C16 3.86693 16 3.86677 16 3.86662C16 3.86647 16 3.86632 16 3.86617C16 3.86602 16 3.86586 16 3.86571C16 3.86556 16 3.86541 16 3.86526C16 3.86511 16 3.86495 16 3.8648C16 3.86465 16 3.8645 16 3.86435C16 3.8642 16 3.86404 16 3.86389C16 3.86374 16 3.86359 16 3.86344C16 3.86328 16 3.86313 16 3.86298C16 3.86283 16 3.86268 16 3.86253C16 3.86237 16 3.86222 16 3.86207C16 3.86192 16 3.86177 16 3.86161C16 3.86146 16 3.86131 16 3.86116C16 3.861 16 3.86085 16 3.8607C16 3.86055 16 3.8604 16 3.86024C16 3.86009 16 3.85994 16 3.85979C16 3.85964 16 3.85948 16 3.85933C16 3.85918 16 3.85903 16 3.85887C16 3.85872 16 3.85857 16 3.85842C16 3.85826 16 3.85811 16 3.85796C16 3.85781 16 3.85765 16 3.8575C16 3.85735 16 3.8572 16 3.85704C16 3.85689 16 3.85674 16 3.85659C16 3.85643 16 3.85628 16 3.85613C16 3.85598 16 3.85582 16 3.85567C16 3.85552 16 3.85537 16 3.85521C16 3.85506 16 3.85491 16 3.85476C16 3.8546 16 3.85445 16 3.8543C16 3.85415 16 3.85399 16 3.85384C16 3.85369 16 3.85353 16 3.85338C16 3.85323 16 3.85308 16 3.85292C16 3.85277 16 3.85262 16 3.85246C16 3.85231 16 3.85216 16 3.852C16 3.85185 16 3.8517 16 3.85155C16 3.85139 16 3.85124 16 3.85109C16 3.85093 16 3.85078 16 3.85063C16 3.85047 16 3.85032 16 3.85017C16 3.85001 16 3.84986 16 3.84971C16 3.84956 16 3.8494 16 3.84925C16 3.8491 16 3.84894 16 3.84879C16 3.84864 16 3.84848 16 3.84833C16 3.84818 16 3.84802 16 3.84787C16 3.84772 16 3.84756 16 3.84741C16 3.84726 16 3.8471 16 3.84695C16 3.84679 16 3.84664 16 3.84649C16 3.84633 16 3.84618 16 3.84603C16 3.84587 16 3.84572 16 3.84557C16 3.84541 16 3.84526 16 3.84511C16 3.84495 16 3.8448 16 3.84464C16 3.84449 16 3.84434 16 3.84418C16 3.84403 16 3.84388 16 3.84372C16 3.84357 16 3.84341 16 3.84326C16 3.84311 16 3.84295 16 3.8428C16 3.84265 16 3.84249 16 3.84234C16 3.84218 16 3.84203 16 3.84188C16 3.84172 16 3.84157 16 3.84141C16 3.84126 16 3.84111 16 3.84095C16 3.8408 16 3.84064 16 3.84049C16 3.84034 16 3.84018 16 3.84003C16 3.83987 16 3.83972 16 3.83957C16 3.83941 16 3.83926 16 3.8391C16 3.83895 16 3.83879 16 3.83864C16 3.83849 16 3.83833 16 3.83818C16 3.83802 16 3.83787 16 3.83771C16 3.83756 16 3.83741 16 3.83725C16 3.8371 16 3.83694 16 3.83679C16 3.83663 16 3.83648 16 3.83632C16 3.83617 16 3.83602 16 3.83586C16 3.83571 16 3.83555 16 3.8354C16 3.83524 16 3.83509 16 3.83493C16 3.83478 16 3.83462 16 3.83447C16 3.83431 16 3.83416 16 3.83401C16 3.83385 16 3.8337 16 3.83354C16 3.83339 16 3.83323 16 3.83308C16 3.83292 16 3.83277 16 3.83261C16 3.83246 16 3.8323 16 3.83215C16 3.83199 16 3.83184 16 3.83168C16 3.83153 16 3.83137 16 3.83122C16 3.83106 16 3.83091 16 3.83075C16 3.8306 16 3.83044 16 3.83029C16 3.83013 16 3.82998 16 3.82982C16 3.82967 16 3.82951 16 3.82936C16 3.8292 16 3.82905 16 3.82889C16 3.82874 16 3.82858 16 3.82843C16 3.82827 16 3.82812 16 3.82796C16 3.82781 16 3.82765 16 3.82749C16 3.82734 16 3.82718 16 3.82703C16 3.82687 16 3.82672 16 3.82656C16 3.82641 16 3.82625 16 3.8261C16 3.82594 16 3.82579 16 3.82563C16 3.82547 16 3.82532 16 3.82516C16 3.82501 16 3.82485 16 3.8247C16 3.82454 16 3.82439 16 3.82423C16 3.82407 16 3.82392 16 3.82376C16 3.82361 16 3.82345 16 3.8233C16 3.82314 16 3.82298 16 3.82283C16 3.82267 16 3.82252 16 3.82236C16 3.82221 16 3.82205 16 3.82189C16 3.82174 16 3.82158 16 3.82143C16 3.82127 16 3.82111 16 3.82096C16 3.8208 16 3.82065 16 3.82049C16 3.82033 16 3.82018 16 3.82002C16 3.81987 16 3.81971 16 3.81955C16 3.8194 16 3.81924 16 3.81909C16 3.81893 16 3.81877 16 3.81862C16 3.81846 16 3.81831 16 3.81815C16 3.81799 16 3.81784 16 3.81768C16 3.81752 16 3.81737 16 3.81721C16 3.81706 16 3.8169 16 3.81674C16 3.81659 16 3.81643 16 3.81627C16 3.81612 16 3.81596 16 3.8158C16 3.81565 16 3.81549 16 3.81534C16 3.81518 16 3.81502 16 3.81487C16 3.81471 16 3.81455 16 3.8144C16 3.81424 16 3.81408 16 3.81393C16 3.81377 16 3.81361 16 3.81346C16 3.8133 16 3.81314 16 3.81299C16 3.81283 16 3.81267 16 3.81252C16 3.81236 16 3.8122 16 3.81205C16 3.81189 16 3.81173 16 3.81158C16 3.81142 16 3.81126 16 3.81111C16 3.81095 16 3.81079 16 3.81063C16 3.81048 16 3.81032 16 3.81016C16 3.81001 16 3.80985 16 3.80969C16 3.80954 16 3.80938 16 3.80922C16 3.80906 16 3.80891 16 3.80875C16 3.80859 16 3.80844 16 3.80828C16 3.80812 16 3.80796 16 3.80781C16 3.80765 16 3.80749 16 3.80734C16 3.80718 16 3.80702 16 3.80686C16 3.80671 16 3.80655 16 3.80639C16 3.80624 16 3.80608 16 3.80592C16 3.80576 16 3.80561 16 3.80545C16 3.80529 16 3.80513 16 3.80498C16 3.80482 16 3.80466 16 3.8045C16 3.80435 16 3.80419 16 3.80403C16 3.80387 16 3.80372 16 3.80356C16 3.8034 16 3.80324 16 3.80309C16 3.80293 16 3.80277 16 3.80261C16 3.80246 16 3.8023 16 3.80214C16 3.80198 16 3.80182 16 3.80167C16 3.80151 16 3.80135 16 3.80119C16 3.80104 16 3.80088 16 3.80072C16 3.80056 16 3.8004 16 3.80025C16 3.80009 16 3.79993 16 3.79977C16 3.79961 16 3.79946 16 3.7993C16 3.79914 16 3.79898 16 3.79882C16 3.79867 16 3.79851 16 3.79835C16 3.79819 16 3.79803 16 3.79788C16 3.79772 16 3.79756 16 3.7974C16 3.79724 16 3.79709 16 3.79693C16 3.79677 16 3.79661 16 3.79645C16 3.79629 16 3.79614 16 3.79598C16 3.79582 16 3.79566 16 3.7955C16 3.79534 16 3.79519 16 3.79503C16 3.79487 16 3.79471 16 3.79455C16 3.79439 16 3.79424 16 3.79408C16 3.79392 16 3.79376 16 3.7936C16 3.79344 16 3.79329 16 3.79313C16 3.79297 16 3.79281 16 3.79265C16 3.79249 16 3.79233 16 3.79218C16 3.79202 16 3.79186 16 3.7917C16 3.79154 16 3.79138 16 3.79122C16 3.79106 16 3.79091 16 3.79075C16 3.79059 16 3.79043 16 3.79027C16 3.79011 16 3.78995 16 3.78979C16 3.78963 16 3.78948 16 3.78932C16 3.78916 16 3.789 16 3.78884C16 3.78868 16 3.78852 16 3.78836C16 3.7882 16 3.78805 16 3.78789C16 3.78773 16 3.78757 16 3.78741C16 3.78725 16 3.78709 16 3.78693C16 3.78677 16 3.78661 16 3.78645C16 3.7863 16 3.78614 16 3.78598C16 3.78582 16 3.78566 16 3.7855C16 3.78534 16 3.78518 16 3.78502C16 3.78486 16 3.7847 16 3.78454C16 3.78438 16 3.78422 16 3.78407C16 3.78391 16 3.78375 16 3.78359C16 3.78343 16 3.78327 16 3.78311C16 3.78295 16 3.78279 16 3.78263C16 3.78247 16 3.78231 16 3.78215C16 3.78199 16 3.78183 16 3.78167C16 3.78151 16 3.78135 16 3.78119C16 3.78103 16 3.78087 16 3.78072C16 3.78056 16 3.7804 16 3.78024C16 3.78008 16 3.77992 16 3.77976C16 3.7796 16 3.77944 16 3.77928C16 3.77912 16 3.77896 16 3.7788C16 3.77864 16 3.77848 16 3.77832C16 3.77816 16 3.778 16 3.77784C16 3.77768 16 3.77752 16 3.77736C16 3.7772 16 3.77704 16 3.77688C16 3.77672 16 3.77656 16 3.7764C16 3.77624 16 3.77608 16 3.77592C16 3.77576 16 3.7756 16 3.77544C16 3.77528 16 3.77512 16 3.77496H14Z" fill="black" mask="url(#path-2-inside-1)"/>
<path fill-rule="evenodd" clip-rule="evenodd" d="M13 12C13.5523 12 14 11.5523 14 11C14 10.4477 13.5523 10 13 10C12.4477 10 12 10.4477 12 11C12 11.5523 12.4477 12 13 12Z" fill="black"/>
</svg>
